<svg xmlns="http://www.w3.org/2000/svg" width="1300" height="660" font-family="Segoe UI, Arial, sans-serif" font-size="12">
<rect width="1300" height="660" fill="white"/>
<rect x="72.0" y="64" width="5.6" height="536" fill="#f3f6fb"/>
<line x1="72.0" y1="64" x2="72.0" y2="600" stroke="#ced4da" stroke-width="1" stroke-dasharray="3,3"/>
<line x1="72.0" y1="416.4" x2="77.6" y2="416.4" stroke="#d9480f" stroke-width="2.5" opacity="0.85"/>
<text x="76.0" y="74" fill="#495057" font-size="11" transform="rotate(90 76.0 74)">0.3.3 (n=12)</text>
<rect x="77.6" y="64" width="8.8" height="536" fill="#e8eef7"/>
<line x1="77.6" y1="64" x2="77.6" y2="600" stroke="#ced4da" stroke-width="1" stroke-dasharray="3,3"/>
<line x1="77.6" y1="409.0" x2="86.4" y2="409.0" stroke="#d9480f" stroke-width="2.5" opacity="0.85"/>
<text x="81.6" y="74" fill="#495057" font-size="11" transform="rotate(90 81.6 74)">0.3.4 (n=18)</text>
<rect x="86.4" y="64" width="2.9" height="536" fill="#f3f6fb"/>
<line x1="86.4" y1="64" x2="86.4" y2="600" stroke="#ced4da" stroke-width="1" stroke-dasharray="3,3"/>
<line x1="86.4" y1="343.4" x2="89.3" y2="343.4" stroke="#d9480f" stroke-width="2.5" opacity="0.85"/>
<text x="90.4" y="74" fill="#495057" font-size="11" transform="rotate(90 90.4 74)">0.3.5 (n=6)</text>
<rect x="89.3" y="64" width="19.5" height="536" fill="#e8eef7"/>
<line x1="89.3" y1="64" x2="89.3" y2="600" stroke="#ced4da" stroke-width="1" stroke-dasharray="3,3"/>
<line x1="89.3" y1="395.1" x2="108.8" y2="395.1" stroke="#d9480f" stroke-width="2.5" opacity="0.85"/>
<text x="93.3" y="74" fill="#495057" font-size="11" transform="rotate(90 93.3 74)">0.4.0 (n=40)</text>
<rect x="108.8" y="64" width="12.7" height="536" fill="#f3f6fb"/>
<line x1="108.8" y1="64" x2="108.8" y2="600" stroke="#ced4da" stroke-width="1" stroke-dasharray="3,3"/>
<line x1="108.8" y1="456.8" x2="121.5" y2="456.8" stroke="#d9480f" stroke-width="2.5" opacity="0.85"/>
<text x="112.8" y="74" fill="#495057" font-size="11" transform="rotate(90 112.8 74)">0.5.0 (n=26)</text>
<rect x="121.5" y="64" width="4.4" height="536" fill="#e8eef7"/>
<line x1="121.5" y1="64" x2="121.5" y2="600" stroke="#ced4da" stroke-width="1" stroke-dasharray="3,3"/>
<line x1="121.5" y1="401.8" x2="125.9" y2="401.8" stroke="#d9480f" stroke-width="2.5" opacity="0.85"/>
<text x="125.5" y="74" fill="#495057" font-size="11" transform="rotate(90 125.5 74)">0.5.1 (n=9)</text>
<rect x="125.9" y="64" width="3.9" height="536" fill="#f3f6fb"/>
<line x1="125.9" y1="64" x2="125.9" y2="600" stroke="#ced4da" stroke-width="1" stroke-dasharray="3,3"/>
<line x1="125.9" y1="319.8" x2="129.8" y2="319.8" stroke="#d9480f" stroke-width="2.5" opacity="0.85"/>
<text x="129.9" y="74" fill="#495057" font-size="11" transform="rotate(90 129.9 74)">0.5.3 (n=8)</text>
<rect x="129.8" y="64" width="17.1" height="536" fill="#e8eef7"/>
<line x1="129.8" y1="64" x2="129.8" y2="600" stroke="#ced4da" stroke-width="1" stroke-dasharray="3,3"/>
<line x1="129.8" y1="314.2" x2="146.9" y2="314.2" stroke="#d9480f" stroke-width="2.5" opacity="0.85"/>
<text x="133.8" y="74" fill="#495057" font-size="11" transform="rotate(90 133.8 74)">0.5.4 (n=35)</text>
<rect x="146.9" y="64" width="141.5" height="536" fill="#f3f6fb"/>
<line x1="146.9" y1="64" x2="146.9" y2="600" stroke="#ced4da" stroke-width="1" stroke-dasharray="3,3"/>
<line x1="146.9" y1="394.0" x2="288.4" y2="394.0" stroke="#d9480f" stroke-width="2.5" opacity="0.85"/>
<text x="150.9" y="74" fill="#495057" font-size="11" transform="rotate(90 150.9 74)">0.5.6 (n=290)</text>
<rect x="288.4" y="64" width="1.0" height="536" fill="#e8eef7"/>
<line x1="288.4" y1="64" x2="288.4" y2="600" stroke="#ced4da" stroke-width="1" stroke-dasharray="3,3"/>
<line x1="288.4" y1="431.0" x2="289.4" y2="431.0" stroke="#d9480f" stroke-width="2.5" opacity="0.85"/>
<text x="292.4" y="74" fill="#495057" font-size="11" transform="rotate(90 292.4 74)">0.6.5 (n=2)</text>
<rect x="289.4" y="64" width="21.5" height="536" fill="#f3f6fb"/>
<line x1="289.4" y1="64" x2="289.4" y2="600" stroke="#ced4da" stroke-width="1" stroke-dasharray="3,3"/>
<line x1="289.4" y1="451.2" x2="310.9" y2="451.2" stroke="#d9480f" stroke-width="2.5" opacity="0.85"/>
<text x="293.4" y="74" fill="#495057" font-size="11" transform="rotate(90 293.4 74)">0.6.6 (n=44)</text>
<rect x="310.9" y="64" width="92.2" height="536" fill="#e8eef7"/>
<line x1="310.9" y1="64" x2="310.9" y2="600" stroke="#ced4da" stroke-width="1" stroke-dasharray="3,3"/>
<line x1="310.9" y1="464.0" x2="403.1" y2="464.0" stroke="#d9480f" stroke-width="2.5" opacity="0.85"/>
<text x="314.9" y="74" fill="#495057" font-size="11" transform="rotate(90 314.9 74)">0.6.7 (n=189)</text>
<rect x="403.1" y="64" width="783.8" height="536" fill="#f3f6fb"/>
<line x1="403.1" y1="64" x2="403.1" y2="600" stroke="#ced4da" stroke-width="1" stroke-dasharray="3,3"/>
<line x1="403.1" y1="406.6" x2="1186.9" y2="406.6" stroke="#d9480f" stroke-width="2.5" opacity="0.85"/>
<text x="407.1" y="74" fill="#495057" font-size="11" transform="rotate(90 407.1 74)">0.6.8 (n=1606)</text>
<rect x="1186.9" y="64" width="32.2" height="536" fill="#e8eef7"/>
<line x1="1186.9" y1="64" x2="1186.9" y2="600" stroke="#ced4da" stroke-width="1" stroke-dasharray="3,3"/>
<line x1="1186.9" y1="242.0" x2="1219.1" y2="242.0" stroke="#d9480f" stroke-width="2.5" opacity="0.85"/>
<text x="1190.9" y="74" fill="#495057" font-size="11" transform="rotate(90 1190.9 74)">0.7.1 (n=66)</text>
<rect x="1219.1" y="64" width="5.9" height="536" fill="#f3f6fb"/>
<line x1="1219.1" y1="64" x2="1219.1" y2="600" stroke="#ced4da" stroke-width="1" stroke-dasharray="3,3"/>
<line x1="1219.1" y1="330.2" x2="1225.0" y2="330.2" stroke="#d9480f" stroke-width="2.5" opacity="0.85"/>
<text x="1223.1" y="74" fill="#495057" font-size="11" transform="rotate(90 1223.1 74)">0.7.5 (n=12)</text>
<rect x="1225.0" y="64" width="51.0" height="536" fill="#e8eef7"/>
<line x1="1225.0" y1="64" x2="1225.0" y2="600" stroke="#ced4da" stroke-width="1" stroke-dasharray="3,3"/>
<line x1="1225.0" y1="337.5" x2="1276.0" y2="337.5" stroke="#d9480f" stroke-width="2.5" opacity="0.85"/>
<text x="1229.0" y="74" fill="#495057" font-size="11" transform="rotate(90 1229.0 74)">0.7.6 (n=105)</text>
<line x1="72" y1="591.4" x2="1276" y2="591.4" stroke="#e9ecef" stroke-width="1"/>
<text x="64" y="595.4" text-anchor="end" fill="#868e96">1000</text>
<line x1="72" y1="548.1" x2="1276" y2="548.1" stroke="#e9ecef" stroke-width="1"/>
<text x="64" y="552.1" text-anchor="end" fill="#868e96">1050</text>
<line x1="72" y1="504.9" x2="1276" y2="504.9" stroke="#e9ecef" stroke-width="1"/>
<text x="64" y="508.9" text-anchor="end" fill="#868e96">1100</text>
<line x1="72" y1="461.7" x2="1276" y2="461.7" stroke="#e9ecef" stroke-width="1"/>
<text x="64" y="465.7" text-anchor="end" fill="#868e96">1150</text>
<line x1="72" y1="418.5" x2="1276" y2="418.5" stroke="#e9ecef" stroke-width="1"/>
<text x="64" y="422.5" text-anchor="end" fill="#868e96">1200</text>
<line x1="72" y1="375.2" x2="1276" y2="375.2" stroke="#e9ecef" stroke-width="1"/>
<text x="64" y="379.2" text-anchor="end" fill="#868e96">1250</text>
<line x1="72" y1="332.0" x2="1276" y2="332.0" stroke="#e9ecef" stroke-width="1"/>
<text x="64" y="336.0" text-anchor="end" fill="#868e96">1300</text>
<line x1="72" y1="288.8" x2="1276" y2="288.8" stroke="#e9ecef" stroke-width="1"/>
<text x="64" y="292.8" text-anchor="end" fill="#868e96">1350</text>
<line x1="72" y1="245.5" x2="1276" y2="245.5" stroke="#e9ecef" stroke-width="1"/>
<text x="64" y="249.5" text-anchor="end" fill="#868e96">1400</text>
<line x1="72" y1="202.3" x2="1276" y2="202.3" stroke="#e9ecef" stroke-width="1"/>
<text x="64" y="206.3" text-anchor="end" fill="#868e96">1450</text>
<line x1="72" y1="159.1" x2="1276" y2="159.1" stroke="#e9ecef" stroke-width="1"/>
<text x="64" y="163.1" text-anchor="end" fill="#868e96">1500</text>
<line x1="72" y1="115.9" x2="1276" y2="115.9" stroke="#e9ecef" stroke-width="1"/>
<text x="64" y="119.9" text-anchor="end" fill="#868e96">1550</text>
<line x1="72" y1="72.6" x2="1276" y2="72.6" stroke="#e9ecef" stroke-width="1"/>
<text x="64" y="76.6" text-anchor="end" fill="#868e96">1600</text>
<polyline points="72.0,395.1 72.5,417.6 73.0,401.2 73.5,384.7 74.0,401.2 74.4,424.5 74.9,401.2 75.4,416.7 75.9,438.3 76.4,459.1 76.9,438.3 77.4,418.5 77.9,397.7 78.3,422.8 78.8,406.3 79.3,387.3 79.8,411.5 80.3,436.6 80.8,418.5 81.3,438.3 81.8,419.3 82.2,397.7 82.7,424.5 83.2,408.1 83.7,425.4 84.2,407.2 84.7,421.9 85.2,401.2 85.7,378.7 86.2,358.8 86.6,340.6 87.1,357.9 87.6,373.5 88.1,350.2 88.6,325.9 89.1,312.1 89.6,300.0 90.1,319.9 90.5,302.6 91.0,320.8 91.5,333.7 92.0,351.0 92.5,368.3 93.0,395.1 93.5,368.3 94.0,343.2 94.4,370.0 94.9,388.2 95.4,366.6 95.9,390.8 96.4,363.1 96.9,378.7 97.4,352.7 97.9,369.2 98.4,392.5 98.8,412.4 99.3,395.1 99.8,413.3 100.3,393.4 100.8,419.3 101.3,402.9 101.8,419.3 102.3,399.4 102.7,415.0 103.2,390.8 103.7,417.6 104.2,442.7 104.7,466.9 105.2,482.4 105.7,506.6 106.2,488.5 106.7,463.4 107.1,443.5 107.6,426.2 108.1,405.5 108.6,423.6 109.1,445.3 109.6,460.8 110.1,488.5 110.6,468.6 111.0,442.7 111.5,470.3 112.0,494.5 112.5,471.2 113.0,486.7 113.5,467.7 114.0,491.9 114.5,465.1 114.9,481.6 115.4,457.4 115.9,438.3 116.4,457.4 116.9,440.9 117.4,461.7 117.9,445.3 118.4,467.7 118.9,447.8 119.3,427.1 119.8,410.7 120.3,436.6 120.8,412.4 121.3,439.2 121.8,460.8 122.3,444.4 122.8,428.0 123.2,403.8 123.7,382.1 124.2,398.6 124.7,378.7 125.2,351.9 125.7,368.3 126.2,350.2 126.7,327.7 127.1,308.7 127.6,329.4 128.1,310.4 128.6,329.4 129.1,310.4 129.6,292.2 130.1,271.5 130.6,255.1 131.1,273.2 131.5,289.6 132.0,277.5 132.5,293.1 133.0,272.3 133.5,293.1 134.0,277.5 134.5,262.0 135.0,282.7 135.4,301.7 135.9,319.9 136.4,338.1 136.9,314.7 137.4,297.4 137.9,318.2 138.4,337.2 138.9,361.4 139.3,345.0 139.8,368.3 140.3,341.5 140.8,317.3 141.3,295.7 141.8,308.7 142.3,322.5 142.8,305.2 143.3,320.8 143.7,338.9 144.2,365.7 144.7,338.9 145.2,317.3 145.7,338.9 146.2,356.2 146.7,381.3 147.2,402.9 147.6,377.8 148.1,397.7 148.6,373.5 149.1,357.1 149.6,332.9 150.1,311.3 150.6,291.4 151.1,305.2 151.6,326.8 152.0,310.4 152.5,297.4 153.0,309.5 153.5,294.8 154.0,309.5 154.5,293.1 155.0,312.1 155.5,291.4 155.9,271.5 156.4,287.9 156.9,305.2 157.4,291.4 157.9,305.2 158.4,325.9 158.9,311.3 159.4,293.1 159.8,274.1 160.3,259.4 160.8,245.5 161.3,265.4 161.8,276.7 162.3,262.8 162.8,277.5 163.3,294.8 163.8,308.7 164.2,325.9 164.7,340.6 165.2,321.6 165.7,340.6 166.2,322.5 166.7,336.3 167.2,318.2 167.7,306.1 168.1,327.7 168.6,313.0 169.1,332.9 169.6,310.4 170.1,325.9 170.6,346.7 171.1,368.3 171.6,351.0 172.0,326.8 172.5,345.0 173.0,367.4 173.5,343.2 174.0,359.7 174.5,334.6 175.0,313.8 175.5,325.9 176.0,306.9 176.4,321.6 176.9,342.4 177.4,320.8 177.9,335.5 178.4,352.7 178.9,372.6 179.4,390.8 179.9,416.7 180.3,442.7 180.8,464.3 181.3,491.9 181.8,517.0 182.3,541.2 182.8,515.3 183.3,498.0 183.8,481.6 184.2,464.3 184.7,448.7 185.2,428.0 185.7,450.4 186.2,428.0 186.7,452.2 187.2,425.4 187.7,451.3 188.2,474.6 188.6,447.0 189.1,472.1 189.6,444.4 190.1,421.0 190.6,397.7 191.1,374.4 191.6,400.3 192.1,376.1 192.5,359.7 193.0,337.2 193.5,354.5 194.0,382.1 194.5,357.9 195.0,336.3 195.5,361.4 196.0,379.5 196.5,351.9 196.9,370.0 197.4,386.5 197.9,358.8 198.4,383.0 198.9,401.2 199.4,421.9 199.9,448.7 200.4,472.9 200.8,454.8 201.3,480.7 201.8,455.6 202.3,433.1 202.8,410.7 203.3,438.3 203.8,415.9 204.3,396.0 204.7,369.2 205.2,342.4 205.7,366.6 206.2,341.5 206.7,365.7 207.2,383.9 207.7,406.3 208.2,427.1 208.7,446.1 209.1,428.0 209.6,449.6 210.1,475.5 210.6,453.0 211.1,437.5 211.6,421.0 212.1,401.2 212.6,428.0 213.0,408.1 213.5,391.7 214.0,407.2 214.5,424.5 215.0,405.5 215.5,433.1 216.0,412.4 216.5,386.5 216.9,408.1 217.4,390.8 217.9,408.1 218.4,389.1 218.9,415.9 219.4,389.9 219.9,409.8 220.4,435.7 220.9,420.2 221.3,440.1 221.8,421.9 222.3,443.5 222.8,463.4 223.3,489.3 223.8,473.8 224.3,491.9 224.8,515.3 225.2,538.6 225.7,512.7 226.2,485.9 226.7,511.0 227.2,485.0 227.7,501.4 228.2,518.7 228.7,536.9 229.1,507.5 229.6,528.2 230.1,498.0 230.6,479.0 231.1,459.9 231.6,433.1 232.1,409.8 232.6,435.7 233.1,415.9 233.5,396.8 234.0,375.2 234.5,350.2 235.0,366.6 235.5,341.5 236.0,357.1 236.5,377.0 237.0,360.5 237.4,382.1 237.9,364.0 238.4,391.7 238.9,370.9 239.4,349.3 239.9,371.8 240.4,396.0 240.9,415.9 241.4,398.6 241.8,378.7 242.3,361.4 242.8,383.9 243.3,361.4 243.8,336.3 244.3,361.4 244.8,387.3 245.3,415.0 245.7,442.7 246.2,458.2 246.7,437.5 247.2,421.9 247.7,444.4 248.2,427.1 248.7,409.8 249.2,390.8 249.6,373.5 250.1,355.3 250.6,377.0 251.1,351.9 251.6,368.3 252.1,386.5 252.6,413.3 253.1,393.4 253.6,415.0 254.0,441.8 254.5,415.0 255.0,392.5 255.5,415.0 256.0,394.2 256.5,377.8 257.0,396.0 257.5,374.4 257.9,356.2 258.4,340.6 258.9,325.1 259.4,345.8 259.9,362.3 260.4,345.8 260.9,359.7 261.4,343.2 261.8,322.5 262.3,339.8 262.8,357.9 263.3,332.9 263.8,310.4 264.3,323.4 264.8,344.1 265.3,359.7 265.8,388.2 266.2,414.1 266.7,439.2 267.2,458.2 267.7,436.6 268.2,458.2 268.7,439.2 269.2,414.1 269.7,398.6 270.1,415.9 270.6,440.9 271.1,419.3 271.6,442.7 272.1,459.1 272.6,477.2 273.1,504.0 273.6,477.2 274.0,496.3 274.5,481.6 275.0,462.5 275.5,439.2 276.0,423.6 276.5,449.6 277.0,430.6 277.5,410.7 278.0,395.1 278.4,416.7 278.9,395.1 279.4,415.9 279.9,439.2 280.4,466.0 280.9,442.7 281.4,462.5 281.9,443.5 282.3,419.3 282.8,402.9 283.3,383.9 283.8,403.8 284.3,387.3 284.8,368.3 285.3,392.5 285.8,413.3 286.3,434.9 286.7,418.5 287.2,440.1 287.7,460.8 288.2,441.8 288.7,421.9 289.2,440.1 289.7,455.6 290.2,481.6 290.6,504.9 291.1,480.7 291.6,458.2 292.1,440.1 292.6,468.6 293.1,443.5 293.6,424.5 294.1,446.1 294.5,428.0 295.0,408.1 295.5,391.7 296.0,364.9 296.5,339.8 297.0,360.5 297.5,383.0 298.0,409.8 298.5,388.2 298.9,408.9 299.4,432.3 299.9,447.0 300.4,429.7 300.9,452.2 301.4,428.8 301.9,447.0 302.4,421.9 302.8,440.1 303.3,455.6 303.8,480.7 304.3,499.7 304.8,519.6 305.3,491.9 305.8,511.0 306.3,485.9 306.7,466.9 307.2,490.2 307.7,506.6 308.2,489.3 308.7,511.8 309.2,528.2 309.7,496.3 310.2,476.4 310.7,459.1 311.1,591.4 311.6,591.4 312.1,482.4 312.6,461.7 313.1,481.6 313.6,453.9 314.1,430.6 314.6,404.6 315.0,430.6 315.5,450.4 316.0,476.4 316.5,494.5 317.0,476.4 317.5,449.6 318.0,476.4 318.5,455.6 318.9,432.3 319.4,408.1 319.9,387.3 320.4,415.0 320.9,432.3 321.4,416.7 321.9,389.9 322.4,410.7 322.9,386.5 323.3,363.1 323.8,335.5 324.3,362.3 324.8,377.8 325.3,357.9 325.8,381.3 326.3,402.9 326.8,428.0 327.2,445.3 327.7,470.3 328.2,488.5 328.7,506.6 329.2,523.1 329.7,540.3 330.2,556.8 330.7,526.5 331.2,498.9 331.6,520.5 332.1,491.1 332.6,509.2 333.1,528.2 333.6,504.9 334.1,487.6 334.6,507.5 335.1,488.5 335.5,504.0 336.0,520.5 336.5,492.8 337.0,516.1 337.5,536.0 338.0,508.4 338.5,531.7 339.0,511.0 339.4,536.9 339.9,515.3 340.4,488.5 340.9,472.9 341.4,498.9 341.9,519.6 342.4,536.9 342.9,556.8 343.4,518.7 343.8,539.5 344.3,517.0 344.8,491.1 345.3,471.2 345.8,449.6 346.3,423.6 346.8,442.7 347.3,424.5 347.7,446.1 348.2,472.1 348.7,447.0 349.2,475.5 349.7,499.7 350.2,484.2 350.7,504.0 351.2,479.8 351.6,454.8 352.1,479.0 352.6,459.1 353.1,475.5 353.6,453.0 354.1,425.4 354.6,404.6 355.1,431.4 355.6,404.6 356.0,421.9 356.5,442.7 357.0,422.8 357.5,406.3 358.0,429.7 358.5,411.5 359.0,429.7 359.5,413.3 359.9,387.3 360.4,370.0 360.9,389.1 361.4,367.4 361.9,347.6 362.4,375.2 362.9,394.2 363.4,418.5 363.8,445.3 364.3,461.7 364.8,446.1 365.3,427.1 365.8,446.1 366.3,472.1 366.8,494.5 367.3,470.3 367.8,492.8 368.2,518.7 368.7,494.5 369.2,471.2 369.7,447.0 370.2,426.2 370.7,399.4 371.2,382.1 371.7,405.5 372.1,380.4 372.6,398.6 373.1,422.8 373.6,403.8 374.1,424.5 374.6,447.8 375.1,427.1 375.6,410.7 376.1,429.7 376.5,406.3 377.0,389.9 377.5,410.7 378.0,435.7 378.5,460.8 379.0,479.0 379.5,501.4 380.0,480.7 380.4,458.2 380.9,485.0 381.4,467.7 381.9,445.3 382.4,464.3 382.9,485.0 383.4,499.7 383.9,523.9 384.3,494.5 384.8,477.2 385.3,449.6 385.8,472.9 386.3,494.5 386.8,510.1 387.3,533.4 387.8,548.1 388.3,563.7 388.7,531.7 389.2,552.5 389.7,520.5 390.2,500.6 390.7,479.8 391.2,459.1 391.7,440.9 392.2,459.9 392.6,479.8 393.1,458.2 393.6,438.3 394.1,457.4 394.6,476.4 395.1,503.2 395.6,528.2 396.1,541.2 396.5,554.2 397.0,565.4 397.5,528.2 398.0,549.9 398.5,567.1 399.0,530.0 399.5,500.6 400.0,482.4 400.5,464.3 400.9,443.5 401.4,415.9 401.9,389.9 402.4,415.0 402.9,433.1 403.4,448.7 403.9,430.6 404.4,413.3 404.8,391.7 405.3,409.8 405.8,429.7 406.3,453.9 406.8,436.6 407.3,457.4 407.8,438.3 408.3,415.9 408.7,393.4 409.2,374.4 409.7,396.0 410.2,419.3 410.7,401.2 411.2,377.8 411.7,352.7 412.2,334.6 412.7,317.3 413.1,300.9 413.6,286.2 414.1,299.1 414.6,279.3 415.1,262.0 415.6,243.8 416.1,224.8 416.6,210.1 417.0,224.8 417.5,212.7 418.0,200.6 418.5,222.2 419.0,202.3 419.5,219.6 420.0,205.8 420.5,227.4 421.0,211.8 421.4,196.3 421.9,211.8 422.4,230.9 422.9,217.0 423.4,236.0 423.9,220.5 424.4,235.2 424.9,222.2 425.3,236.0 425.8,253.3 426.3,239.5 426.8,260.2 427.3,280.1 427.8,265.4 428.3,283.6 428.8,299.1 429.2,278.4 429.7,259.4 430.2,272.3 430.7,290.5 431.2,276.7 431.7,289.6 432.2,306.1 432.7,319.9 433.2,304.3 433.6,325.9 434.1,312.1 434.6,292.2 435.1,275.8 435.6,295.7 436.1,277.5 436.6,290.5 437.1,268.9 437.5,285.3 438.0,272.3 438.5,253.3 439.0,232.6 439.5,220.5 440.0,241.2 440.5,256.8 441.0,243.0 441.4,263.7 441.9,281.9 442.4,262.8 442.9,245.5 443.4,265.4 443.9,246.4 444.4,260.2 444.9,243.0 445.4,257.7 445.8,279.3 446.3,294.0 446.8,274.9 447.3,258.5 447.8,241.2 448.3,260.2 448.8,272.3 449.3,288.8 449.7,271.5 450.2,294.0 450.7,314.7 451.2,300.9 451.7,319.9 452.2,332.9 452.7,309.5 453.2,325.9 453.6,304.3 454.1,320.8 454.6,338.1 455.1,313.8 455.6,329.4 456.1,346.7 456.6,370.0 457.1,388.2 457.6,410.7 458.0,437.5 458.5,453.9 459.0,471.2 459.5,491.1 460.0,467.7 460.5,492.8 461.0,466.9 461.5,439.2 461.9,414.1 462.4,441.8 462.9,420.2 463.4,404.6 463.9,429.7 464.4,453.9 464.9,429.7 465.4,410.7 465.9,425.4 466.3,448.7 466.8,434.0 467.3,459.9 467.8,444.4 468.3,472.1 468.8,497.1 469.3,480.7 469.8,463.4 470.2,444.4 470.7,471.2 471.2,490.2 471.7,511.0 472.2,531.7 472.7,511.0 473.2,491.9 473.7,472.9 474.1,455.6 474.6,438.3 475.1,454.8 475.6,477.2 476.1,453.0 476.6,476.4 477.1,502.3 477.6,478.1 478.1,453.0 478.5,436.6 479.0,462.5 479.5,484.2 480.0,505.8 480.5,530.0 481.0,549.9 481.5,521.3 482.0,538.6 482.4,506.6 482.9,528.2 483.4,546.4 483.9,559.4 484.4,522.2 484.9,545.5 485.4,514.4 485.9,496.3 486.3,515.3 486.8,490.2 487.3,517.0 487.8,534.3 488.3,503.2 488.8,523.1 489.3,494.5 489.8,476.4 490.3,501.4 490.7,483.3 491.2,467.7 491.7,446.1 492.2,466.9 492.7,485.0 493.2,464.3 493.7,441.8 494.2,417.6 494.6,443.5 495.1,471.2 495.6,455.6 496.1,438.3 496.6,453.9 497.1,471.2 497.6,497.1 498.1,515.3 498.5,530.8 499.0,549.9 499.5,525.7 500.0,548.1 500.5,516.1 501.0,531.7 501.5,506.6 502.0,486.7 502.5,504.9 502.9,523.9 503.4,504.9 503.9,485.0 504.4,464.3 504.9,486.7 505.4,459.9 505.9,439.2 506.4,455.6 506.8,481.6 507.3,497.1 507.8,523.1 508.3,543.8 508.8,517.9 509.3,535.2 509.8,513.5 510.3,494.5 510.7,472.9 511.2,493.7 511.7,472.1 512.2,453.0 512.7,472.9 513.2,451.3 513.7,476.4 514.2,453.0 514.7,479.8 515.1,457.4 515.6,429.7 516.1,447.8 516.6,423.6 517.1,442.7 517.6,468.6 518.1,450.4 518.6,431.4 519.0,447.0 519.5,431.4 520.0,412.4 520.5,438.3 521.0,460.8 521.5,441.8 522.0,423.6 522.5,440.1 523.0,466.9 523.4,446.1 523.9,466.0 524.4,484.2 524.9,458.2 525.4,438.3 525.9,421.0 526.4,403.8 526.9,383.9 527.3,356.2 527.8,383.0 528.3,357.1 528.8,374.4 529.3,400.3 529.8,380.4 530.3,359.7 530.8,341.5 531.2,361.4 531.7,345.8 532.2,319.0 532.7,300.0 533.2,322.5 533.7,303.5 534.2,317.3 534.7,297.4 535.2,316.4 535.6,330.3 536.1,311.3 536.6,294.8 537.1,313.0 537.6,327.7 538.1,344.1 538.6,327.7 539.1,339.8 539.5,319.9 540.0,298.3 540.5,319.9 541.0,335.5 541.5,361.4 542.0,345.0 542.5,368.3 543.0,387.3 543.4,403.8 543.9,387.3 544.4,406.3 544.9,379.5 545.4,352.7 545.9,369.2 546.4,396.8 546.9,422.8 547.4,444.4 547.8,426.2 548.3,400.3 548.8,425.4 549.3,441.8 549.8,418.5 550.3,446.1 550.8,426.2 551.3,408.9 551.7,388.2 552.2,359.7 552.7,340.6 553.2,313.0 553.7,293.1 554.2,274.9 554.7,254.2 555.2,270.6 555.6,285.3 556.1,299.1 556.6,320.8 557.1,336.3 557.6,310.4 558.1,290.5 558.6,303.5 559.1,324.2 559.6,338.1 560.0,321.6 560.5,304.3 561.0,287.0 561.5,267.2 562.0,286.2 562.5,266.3 563.0,286.2 563.5,301.7 563.9,319.0 564.4,340.6 564.9,360.5 565.4,377.0 565.9,360.5 566.4,333.7 566.9,350.2 567.4,334.6 567.9,354.5 568.3,336.3 568.8,355.3 569.3,378.7 569.8,360.5 570.3,387.3 570.8,360.5 571.3,343.2 571.8,370.9 572.2,352.7 572.7,371.8 573.2,346.7 573.7,367.4 574.2,382.1 574.7,354.5 575.2,376.1 575.7,354.5 576.1,337.2 576.6,310.4 577.1,324.2 577.6,341.5 578.1,363.1 578.6,342.4 579.1,319.9 579.6,300.0 580.1,317.3 580.5,304.3 581.0,319.0 581.5,299.1 582.0,284.5 582.5,300.9 583.0,285.3 583.5,304.3 584.0,286.2 584.4,264.6 584.9,278.4 585.4,294.0 585.9,309.5 586.4,328.5 586.9,312.1 587.4,290.5 587.9,305.2 588.3,323.4 588.8,337.2 589.3,358.8 589.8,377.0 590.3,394.2 590.8,421.9 591.3,396.0 591.8,421.0 592.3,396.0 592.7,423.6 593.2,399.4 593.7,416.7 594.2,432.3 594.7,408.9 595.2,428.0 595.7,453.0 596.2,432.3 596.6,407.2 597.1,389.1 597.6,373.5 598.1,348.4 598.6,332.9 599.1,358.8 599.6,343.2 600.1,368.3 600.5,385.6 601.0,406.3 601.5,390.8 602.0,409.8 602.5,389.1 603.0,373.5 603.5,391.7 604.0,371.8 604.5,398.6 604.9,379.5 605.4,402.0 605.9,418.5 606.4,439.2 606.9,457.4 607.4,474.6 607.9,501.4 608.4,517.9 608.8,491.9 609.3,517.9 609.8,492.8 610.3,516.1 610.8,487.6 611.3,504.9 611.8,485.0 612.3,468.6 612.8,485.0 613.2,508.4 613.7,491.9 614.2,470.3 614.7,451.3 615.2,468.6 615.7,449.6 616.2,428.0 616.7,455.6 617.1,432.3 617.6,416.7 618.1,432.3 618.6,413.3 619.1,392.5 619.6,368.3 620.1,393.4 620.6,372.6 621.0,391.7 621.5,373.5 622.0,393.4 622.5,420.2 623.0,398.6 623.5,375.2 624.0,402.9 624.5,387.3 625.0,412.4 625.4,389.9 625.9,368.3 626.4,388.2 626.9,408.9 627.4,432.3 627.9,453.9 628.4,430.6 628.9,408.1 629.3,384.7 629.8,401.2 630.3,374.4 630.8,395.1 631.3,420.2 631.8,396.8 632.3,379.5 632.8,359.7 633.2,339.8 633.7,358.8 634.2,334.6 634.7,313.8 635.2,328.5 635.7,311.3 636.2,325.9 636.7,307.8 637.2,325.9 637.6,345.8 638.1,368.3 638.6,387.3 639.1,411.5 639.6,438.3 640.1,422.8 640.6,404.6 641.1,431.4 641.5,415.0 642.0,386.5 642.5,370.0 643.0,350.2 643.5,377.0 644.0,400.3 644.5,381.3 645.0,408.1 645.4,427.1 645.9,449.6 646.4,430.6 646.9,454.8 647.4,470.3 647.9,447.0 648.4,462.5 648.9,440.1 649.4,420.2 649.8,443.5 650.3,462.5 650.8,436.6 651.3,415.9 651.8,396.0 652.3,418.5 652.8,438.3 653.3,415.0 653.7,399.4 654.2,421.9 654.7,444.4 655.2,418.5 655.7,446.1 656.2,466.0 656.7,447.8 657.2,420.2 657.7,437.5 658.1,410.7 658.6,431.4 659.1,457.4 659.6,477.2 660.1,450.4 660.6,477.2 661.1,458.2 661.6,477.2 662.0,461.7 662.5,486.7 663.0,462.5 663.5,440.1 664.0,466.9 664.5,494.5 665.0,474.6 665.5,454.8 665.9,433.1 666.4,406.3 666.9,386.5 667.4,358.8 667.9,381.3 668.4,355.3 668.9,380.4 669.4,353.6 669.9,329.4 670.3,312.1 670.8,332.9 671.3,351.0 671.8,330.3 672.3,309.5 672.8,322.5 673.3,306.9 673.8,289.6 674.2,274.9 674.7,295.7 675.2,274.1 675.7,291.4 676.2,309.5 676.7,323.4 677.2,340.6 677.7,319.9 678.1,298.3 678.6,319.9 679.1,336.3 679.6,363.1 680.1,338.1 680.6,364.0 681.1,345.8 681.6,322.5 682.1,303.5 682.5,287.9 683.0,273.2 683.5,255.1 684.0,243.0 684.5,227.4 685.0,247.3 685.5,230.9 686.0,217.9 686.4,234.3 686.9,215.3 687.4,202.3 687.9,223.1 688.4,210.1 688.9,223.9 689.4,243.0 689.9,263.7 690.3,284.5 690.8,302.6 691.3,317.3 691.8,337.2 692.3,316.4 692.8,335.5 693.3,358.8 693.8,384.7 694.3,358.8 694.7,339.8 695.2,322.5 695.7,338.9 696.2,315.6 696.7,338.1 697.2,363.1 697.7,389.9 698.2,373.5 698.6,347.6 699.1,364.9 699.6,391.7 700.1,364.0 700.6,391.7 701.1,374.4 701.6,401.2 702.1,419.3 702.6,441.8 703.0,423.6 703.5,445.3 704.0,429.7 704.5,456.5 705.0,479.8 705.5,505.8 706.0,487.6 706.5,462.5 706.9,482.4 707.4,461.7 707.9,489.3 708.4,471.2 708.9,490.2 709.4,514.4 709.9,491.1 710.4,513.5 710.8,488.5 711.3,468.6 711.8,450.4 712.3,470.3 712.8,454.8 713.3,437.5 713.8,419.3 714.3,441.8 714.8,418.5 715.2,434.0 715.7,459.9 716.2,480.7 716.7,501.4 717.2,483.3 717.7,465.1 718.2,443.5 718.7,464.3 719.1,437.5 719.6,461.7 720.1,489.3 720.6,466.9 721.1,486.7 721.6,467.7 722.1,490.2 722.6,465.1 723.0,437.5 723.5,464.3 724.0,485.0 724.5,457.4 725.0,472.9 725.5,498.9 726.0,515.3 726.5,486.7 727.0,510.1 727.4,482.4 727.9,461.7 728.4,482.4 728.9,498.9 729.4,513.5 729.9,530.0 730.4,497.1 730.9,477.2 731.3,500.6 731.8,485.0 732.3,466.9 732.8,440.1 733.3,461.7 733.8,446.1 734.3,419.3 734.8,394.2 735.2,375.2 735.7,396.0 736.2,415.0 736.7,432.3 737.2,409.8 737.7,436.6 738.2,416.7 738.7,440.9 739.2,421.9 739.6,394.2 740.1,416.7 740.6,396.0 741.1,379.5 741.6,402.0 742.1,417.6 742.6,438.3 743.1,458.2 743.5,475.5 744.0,498.9 744.5,521.3 745.0,537.8 745.5,506.6 746.0,525.7 746.5,499.7 747.0,515.3 747.5,531.7 747.9,507.5 748.4,491.1 748.9,467.7 749.4,444.4 749.9,464.3 750.4,489.3 750.9,470.3 751.4,495.4 751.8,476.4 752.3,456.5 752.8,479.8 753.3,463.4 753.8,485.9 754.3,462.5 754.8,443.5 755.3,426.2 755.7,398.6 756.2,416.7 756.7,398.6 757.2,425.4 757.7,447.0 758.2,469.5 758.7,447.0 759.2,421.9 759.7,396.0 760.1,377.8 760.6,352.7 761.1,328.5 761.6,309.5 762.1,325.9 762.6,340.6 763.1,364.0 763.6,337.2 764.0,353.6 764.5,325.9 765.0,305.2 765.5,292.2 766.0,308.7 766.5,329.4 767.0,346.7 767.5,367.4 767.9,340.6 768.4,360.5 768.9,387.3 769.4,412.4 769.9,440.1 770.4,417.6 770.9,391.7 771.4,366.6 771.9,387.3 772.3,359.7 772.8,342.4 773.3,369.2 773.8,385.6 774.3,405.5 774.8,428.0 775.3,447.8 775.8,422.8 776.2,397.7 776.7,425.4 777.2,445.3 777.7,463.4 778.2,490.2 778.7,462.5 779.2,443.5 779.7,463.4 780.1,482.4 780.6,467.7 781.1,485.0 781.6,506.6 782.1,485.9 782.6,511.0 783.1,535.2 783.6,507.5 784.1,530.8 784.5,498.9 785.0,483.3 785.5,507.5 786.0,529.1 786.5,546.4 787.0,513.5 787.5,495.4 788.0,477.2 788.4,501.4 788.9,519.6 789.4,542.1 789.9,556.8 790.4,527.4 790.9,542.1 791.4,509.2 791.9,536.0 792.4,514.4 792.8,497.1 793.3,476.4 793.8,453.0 794.3,473.8 794.8,456.5 795.3,431.4 795.8,454.8 796.3,436.6 796.7,415.0 797.2,392.5 797.7,376.1 798.2,399.4 798.7,423.6 799.2,402.9 799.7,382.1 800.2,409.8 800.6,394.2 801.1,368.3 801.6,389.9 802.1,415.0 802.6,394.2 803.1,409.8 803.6,429.7 804.1,455.6 804.6,433.1 805.0,415.0 805.5,396.8 806.0,377.0 806.5,394.2 807.0,379.5 807.5,363.1 808.0,377.8 808.5,399.4 808.9,424.5 809.4,449.6 809.9,428.0 810.4,412.4 810.9,434.0 811.4,411.5 811.9,395.1 812.4,416.7 812.8,433.1 813.3,458.2 813.8,440.9 814.3,424.5 814.8,401.2 815.3,377.0 815.8,348.4 816.3,331.1 816.8,351.9 817.2,374.4 817.7,350.2 818.2,371.8 818.7,399.4 819.2,382.1 819.7,398.6 820.2,377.0 820.7,395.1 821.1,420.2 821.6,440.1 822.1,421.0 822.6,447.8 823.1,427.1 823.6,401.2 824.1,382.1 824.6,399.4 825.0,380.4 825.5,402.9 826.0,428.0 826.5,409.8 827.0,389.9 827.5,372.6 828.0,394.2 828.5,369.2 829.0,395.1 829.4,366.6 829.9,384.7 830.4,360.5 830.9,334.6 831.4,357.9 831.9,373.5 832.4,400.3 832.9,375.2 833.3,395.1 833.8,376.1 834.3,402.0 834.8,421.9 835.3,405.5 835.8,421.9 836.3,402.9 836.8,383.0 837.3,363.1 837.7,378.7 838.2,399.4 838.7,415.9 839.2,400.3 839.7,425.4 840.2,445.3 840.7,419.3 841.2,443.5 841.6,467.7 842.1,491.9 842.6,511.0 843.1,491.1 843.6,511.8 844.1,528.2 844.6,541.2 845.1,555.0 845.5,520.5 846.0,541.2 846.5,559.4 847.0,529.1 847.5,546.4 848.0,520.5 848.5,537.8 849.0,504.9 849.5,489.3 849.9,508.4 850.4,523.9 850.9,503.2 851.4,522.2 851.9,544.7 852.4,559.4 852.9,528.2 853.4,503.2 853.8,478.1 854.3,453.9 854.8,428.0 855.3,408.1 855.8,426.2 856.3,444.4 856.8,427.1 857.3,453.9 857.7,479.0 858.2,459.1 858.7,476.4 859.2,494.5 859.7,514.4 860.2,536.0 860.7,508.4 861.2,527.4 861.7,507.5 862.1,483.3 862.6,460.8 863.1,485.0 863.6,502.3 864.1,478.1 864.6,461.7 865.1,444.4 865.6,426.2 866.0,446.1 866.5,470.3 867.0,449.6 867.5,474.6 868.0,448.7 868.5,429.7 869.0,403.8 869.5,385.6 869.9,412.4 870.4,428.0 870.9,447.8 871.4,427.1 871.9,410.7 872.4,388.2 872.9,408.9 873.4,381.3 873.9,357.9 874.3,377.0 874.8,351.9 875.3,368.3 875.8,352.7 876.3,328.5 876.8,313.8 877.3,335.5 877.8,355.3 878.2,380.4 878.7,362.3 879.2,342.4 879.7,366.6 880.2,341.5 880.7,357.1 881.2,383.9 881.7,410.7 882.1,387.3 882.6,370.9 883.1,345.8 883.6,373.5 884.1,395.1 884.6,414.1 885.1,440.9 885.6,466.0 886.1,486.7 886.5,507.5 887.0,525.7 887.5,548.1 888.0,511.8 888.5,495.4 889.0,469.5 889.5,485.9 890.0,503.2 890.4,530.8 890.9,504.9 891.4,520.5 891.9,543.8 892.4,511.8 892.9,530.0 893.4,508.4 893.9,479.8 894.4,506.6 894.8,483.3 895.3,510.1 895.8,526.5 896.3,506.6 896.8,533.4 897.3,511.8 897.8,490.2 898.3,516.1 898.7,491.9 899.2,470.3 899.7,493.7 900.2,478.1 900.7,500.6 901.2,479.0 901.7,455.6 902.2,428.0 902.6,453.0 903.1,472.1 903.6,450.4 904.1,431.4 904.6,452.2 905.1,427.1 905.6,450.4 906.1,422.8 906.6,400.3 907.0,417.6 907.5,397.7 908.0,414.1 908.5,430.6 909.0,413.3 909.5,436.6 910.0,454.8 910.5,430.6 910.9,408.1 911.4,391.7 911.9,417.6 912.4,400.3 912.9,377.8 913.4,396.0 913.9,380.4 914.4,398.6 914.8,422.8 915.3,443.5 915.8,460.8 916.3,435.7 916.8,452.2 917.3,432.3 917.8,453.0 918.3,471.2 918.8,452.2 919.2,472.1 919.7,492.8 920.2,516.1 920.7,530.0 921.2,505.8 921.7,528.2 922.2,502.3 922.7,479.8 923.1,453.0 923.6,429.7 924.1,408.1 924.6,382.1 925.1,401.2 925.6,421.0 926.1,396.8 926.6,376.1 927.0,357.9 927.5,342.4 928.0,370.0 928.5,389.9 929.0,415.9 929.5,441.8 930.0,424.5 930.5,399.4 931.0,371.8 931.4,398.6 931.9,414.1 932.4,395.1 932.9,420.2 933.4,447.8 933.9,433.1 934.4,415.9 934.9,400.3 935.3,382.1 935.8,365.7 936.3,391.7 936.8,410.7 937.3,387.3 937.8,406.3 938.3,423.6 938.8,407.2 939.3,422.8 939.7,447.8 940.2,432.3 940.7,457.4 941.2,440.1 941.7,421.9 942.2,449.6 942.7,466.0 943.2,486.7 943.6,459.9 944.1,485.0 944.6,504.9 945.1,478.1 945.6,451.3 946.1,471.2 946.6,486.7 947.1,466.0 947.5,448.7 948.0,423.6 948.5,399.4 949.0,425.4 949.5,444.4 950.0,462.5 950.5,485.9 951.0,506.6 951.5,481.6 951.9,498.0 952.4,477.2 952.9,498.0 953.4,472.9 953.9,453.0 954.4,433.1 954.9,416.7 955.4,398.6 955.8,417.6 956.3,402.0 956.8,428.8 957.3,402.9 957.8,382.1 958.3,362.3 958.8,345.0 959.3,370.0 959.7,396.8 960.2,419.3 960.7,437.5 961.2,415.0 961.7,397.7 962.2,370.9 962.7,353.6 963.2,370.9 963.7,397.7 964.1,415.0 964.6,390.8 965.1,374.4 965.6,396.0 966.1,416.7 966.6,437.5 967.1,455.6 967.6,429.7 968.0,412.4 968.5,437.5 969.0,414.1 969.5,434.0 970.0,452.2 970.5,431.4 971.0,403.8 971.5,423.6 971.9,399.4 972.4,423.6 972.9,443.5 973.4,462.5 973.9,440.1 974.4,464.3 974.9,489.3 975.4,512.7 975.9,495.4 976.3,520.5 976.8,500.6 977.3,484.2 977.8,462.5 978.3,479.8 978.8,459.1 979.3,479.0 979.8,460.8 980.2,442.7 980.7,459.9 981.2,487.6 981.7,468.6 982.2,441.8 982.7,416.7 983.2,396.0 983.7,369.2 984.2,351.0 984.6,377.0 985.1,395.1 985.6,371.8 986.1,346.7 986.6,366.6 987.1,348.4 987.6,371.8 988.1,396.8 988.5,372.6 989.0,347.6 989.5,367.4 990.0,346.7 990.5,329.4 991.0,344.1 991.5,369.2 992.0,346.7 992.4,325.1 992.9,341.5 993.4,360.5 993.9,383.9 994.4,362.3 994.9,378.7 995.4,351.0 995.9,368.3 996.4,340.6 996.8,356.2 997.3,378.7 997.8,405.5 998.3,388.2 998.8,364.0 999.3,382.1 999.8,408.9 1000.3,424.5 1000.7,449.6 1001.2,468.6 1001.7,440.9 1002.2,414.1 1002.7,393.4 1003.2,366.6 1003.7,351.0 1004.2,328.5 1004.6,307.8 1005.1,293.1 1005.6,310.4 1006.1,325.1 1006.6,344.1 1007.1,367.4 1007.6,385.6 1008.1,357.9 1008.6,332.9 1009.0,356.2 1009.5,377.8 1010.0,359.7 1010.5,338.1 1011.0,317.3 1011.5,330.3 1012.0,308.7 1012.5,290.5 1012.9,306.9 1013.4,286.2 1013.9,306.1 1014.4,325.9 1014.9,339.8 1015.4,317.3 1015.9,331.1 1016.4,353.6 1016.8,329.4 1017.3,346.7 1017.8,325.1 1018.3,340.6 1018.8,322.5 1019.3,301.7 1019.8,280.1 1020.3,294.8 1020.8,280.1 1021.2,299.1 1021.7,320.8 1022.2,342.4 1022.7,318.2 1023.2,300.0 1023.7,314.7 1024.2,327.7 1024.7,310.4 1025.1,327.7 1025.6,342.4 1026.1,368.3 1026.6,393.4 1027.1,378.7 1027.6,363.1 1028.1,338.9 1028.6,320.8 1029.1,333.7 1029.5,307.8 1030.0,326.8 1030.5,341.5 1031.0,359.7 1031.5,377.8 1032.0,398.6 1032.5,373.5 1033.0,400.3 1033.4,381.3 1033.9,408.1 1034.4,423.6 1034.9,444.4 1035.4,463.4 1035.9,438.3 1036.4,421.9 1036.9,447.0 1037.3,424.5 1037.8,450.4 1038.3,428.0 1038.8,452.2 1039.3,433.1 1039.8,415.9 1040.3,437.5 1040.8,459.1 1041.3,485.0 1041.7,465.1 1042.2,481.6 1042.7,453.9 1043.2,472.1 1043.7,445.3 1044.2,425.4 1044.7,401.2 1045.2,385.6 1045.6,407.2 1046.1,387.3 1046.6,406.3 1047.1,380.4 1047.6,408.1 1048.1,389.1 1048.6,364.0 1049.1,349.3 1049.5,368.3 1050.0,352.7 1050.5,327.7 1051.0,348.4 1051.5,364.9 1052.0,344.1 1052.5,328.5 1053.0,307.8 1053.5,292.2 1053.9,312.1 1054.4,324.2 1054.9,343.2 1055.4,325.1 1055.9,303.5 1056.4,290.5 1056.9,303.5 1057.4,285.3 1057.8,300.9 1058.3,283.6 1058.8,268.9 1059.3,288.8 1059.8,307.8 1060.3,324.2 1060.8,339.8 1061.3,364.9 1061.7,380.4 1062.2,396.8 1062.7,421.0 1063.2,439.2 1063.7,423.6 1064.2,442.7 1064.7,460.8 1065.2,481.6 1065.7,508.4 1066.1,485.9 1066.6,508.4 1067.1,524.8 1067.6,542.9 1068.1,518.7 1068.6,496.3 1069.1,475.5 1069.6,448.7 1070.0,428.0 1070.5,411.5 1071.0,437.5 1071.5,463.4 1072.0,491.1 1072.5,464.3 1073.0,448.7 1073.5,474.6 1074.0,456.5 1074.4,472.9 1074.9,494.5 1075.4,478.1 1075.9,500.6 1076.4,522.2 1076.9,498.9 1077.4,471.2 1077.9,491.1 1078.3,517.0 1078.8,498.9 1079.3,471.2 1079.8,490.2 1080.3,470.3 1080.8,497.1 1081.3,518.7 1081.8,497.1 1082.2,479.0 1082.7,504.9 1083.2,523.1 1083.7,539.5 1084.2,558.5 1084.7,523.1 1085.2,542.9 1085.7,555.9 1086.2,571.5 1086.6,542.1 1087.1,508.4 1087.6,479.8 1088.1,459.1 1088.6,434.9 1089.1,456.5 1089.6,428.8 1090.1,456.5 1090.5,479.8 1091.0,459.9 1091.5,442.7 1092.0,458.2 1092.5,474.6 1093.0,493.7 1093.5,467.7 1094.0,485.9 1094.4,458.2 1094.9,442.7 1095.4,466.9 1095.9,488.5 1096.4,512.7 1096.9,492.8 1097.4,469.5 1097.9,494.5 1098.4,514.4 1098.8,496.3 1099.3,514.4 1099.8,494.5 1100.3,518.7 1100.8,495.4 1101.3,474.6 1101.8,447.8 1102.3,472.9 1102.7,491.1 1103.2,515.3 1103.7,530.0 1104.2,510.1 1104.7,479.0 1105.2,459.9 1105.7,440.1 1106.2,463.4 1106.6,491.9 1107.1,466.9 1107.6,490.2 1108.1,518.7 1108.6,540.3 1109.1,552.5 1109.6,564.6 1110.1,574.9 1110.6,544.7 1111.0,516.1 1111.5,538.6 1112.0,552.5 1112.5,568.0 1113.0,577.5 1113.5,585.3 1114.0,550.7 1114.5,562.8 1114.9,576.7 1115.4,541.2 1115.9,508.4 1116.4,485.0 1116.9,458.2 1117.4,476.4 1117.9,454.8 1118.4,429.7 1118.9,406.3 1119.3,427.1 1119.8,452.2 1120.3,434.9 1120.8,409.8 1121.3,428.0 1121.8,445.3 1122.3,421.9 1122.8,438.3 1123.2,421.0 1123.7,398.6 1124.2,421.9 1124.7,439.2 1125.2,461.7 1125.7,441.8 1126.2,420.2 1126.7,442.7 1127.1,426.2 1127.6,446.1 1128.1,429.7 1128.6,449.6 1129.1,429.7 1129.6,413.3 1130.1,438.3 1130.6,418.5 1131.1,433.1 1131.5,413.3 1132.0,440.9 1132.5,466.0 1133.0,485.9 1133.5,465.1 1134.0,447.8 1134.5,470.3 1135.0,498.0 1135.4,481.6 1135.9,504.0 1136.4,479.0 1136.9,453.9 1137.4,473.8 1137.9,450.4 1138.4,429.7 1138.9,408.1 1139.3,391.7 1139.8,370.9 1140.3,350.2 1140.8,327.7 1141.3,308.7 1141.8,330.3 1142.3,347.6 1142.8,368.3 1143.3,389.1 1143.7,415.9 1144.2,442.7 1144.7,421.9 1145.2,403.8 1145.7,427.1 1146.2,446.1 1146.7,428.0 1147.2,446.1 1147.6,425.4 1148.1,408.1 1148.6,430.6 1149.1,452.2 1149.6,431.4 1150.1,403.8 1150.6,426.2 1151.1,452.2 1151.5,431.4 1152.0,414.1 1152.5,391.7 1153.0,414.1 1153.5,440.1 1154.0,415.9 1154.5,398.6 1155.0,382.1 1155.5,354.5 1155.9,335.5 1156.4,317.3 1156.9,338.1 1157.4,313.8 1157.9,297.4 1158.4,278.4 1158.9,291.4 1159.4,270.6 1159.8,252.5 1160.3,264.6 1160.8,283.6 1161.3,298.3 1161.8,314.7 1162.3,329.4 1162.8,313.8 1163.3,326.8 1163.8,340.6 1164.2,319.9 1164.7,340.6 1165.2,356.2 1165.7,373.5 1166.2,355.3 1166.7,373.5 1167.2,357.1 1167.7,381.3 1168.1,406.3 1168.6,383.9 1169.1,358.8 1169.6,336.3 1170.1,313.8 1170.6,326.8 1171.1,310.4 1171.6,291.4 1172.0,273.2 1172.5,260.2 1173.0,242.1 1173.5,226.5 1174.0,237.8 1174.5,217.9 1175.0,204.1 1175.5,223.1 1176.0,241.2 1176.4,224.8 1176.9,238.6 1177.4,256.8 1177.9,278.4 1178.4,296.6 1178.9,316.4 1179.4,294.8 1179.9,315.6 1180.3,295.7 1180.8,313.0 1181.3,331.1 1181.8,318.2 1182.3,306.1 1182.8,290.5 1183.3,276.7 1183.8,260.2 1184.2,243.0 1184.7,228.3 1185.2,212.7 1185.7,228.3 1186.2,210.1 1186.7,191.9 1187.2,201.5 1187.7,181.6 1188.2,166.9 1188.6,152.2 1189.1,168.6 1189.6,147.9 1190.1,126.2 1190.6,111.5 1191.1,129.7 1191.6,151.3 1192.1,165.1 1192.5,182.4 1193.0,202.3 1193.5,183.3 1194.0,204.1 1194.5,186.8 1195.0,166.0 1195.5,187.6 1196.0,209.2 1196.4,190.2 1196.9,209.2 1197.4,192.8 1197.9,179.8 1198.4,166.0 1198.9,180.7 1199.4,165.1 1199.9,146.1 1200.4,164.3 1200.8,182.4 1201.3,204.1 1201.8,220.5 1202.3,243.0 1202.8,226.5 1203.3,248.1 1203.8,231.7 1204.3,251.6 1204.7,271.5 1205.2,249.9 1205.7,266.3 1206.2,284.5 1206.7,305.2 1207.2,327.7 1207.7,310.4 1208.2,322.5 1208.7,306.1 1209.1,284.5 1209.6,304.3 1210.1,319.0 1210.6,332.9 1211.1,348.4 1211.6,374.4 1212.1,389.9 1212.6,371.8 1213.0,351.9 1213.5,325.1 1214.0,306.9 1214.5,325.9 1215.0,307.8 1215.5,289.6 1216.0,269.8 1216.5,255.9 1216.9,269.8 1217.4,287.9 1217.9,307.8 1218.4,328.5 1218.9,349.3 1219.4,372.6 1219.9,348.4 1220.4,327.7 1220.9,340.6 1221.3,323.4 1221.8,344.1 1222.3,360.5 1222.8,338.1 1223.3,321.6 1223.8,302.6 1224.3,283.6 1224.8,299.1 1225.2,313.8 1225.7,330.3 1226.2,349.3 1226.7,376.1 1227.2,361.4 1227.7,336.3 1228.2,363.1 1228.7,388.2 1229.1,407.2 1229.6,390.8 1230.1,370.9 1230.6,344.1 1231.1,327.7 1231.6,307.8 1232.1,294.8 1232.6,275.8 1233.1,258.5 1233.5,243.8 1234.0,230.9 1234.5,218.7 1235.0,201.5 1235.5,218.7 1236.0,202.3 1236.5,185.9 1237.0,168.6 1237.4,147.0 1237.9,168.6 1238.4,190.2 1238.9,172.9 1239.4,159.1 1239.9,181.6 1240.4,203.2 1240.9,218.7 1241.3,238.6 1241.8,249.0 1242.3,262.8 1242.8,281.0 1243.3,298.3 1243.8,313.8 1244.3,328.5 1244.8,345.0 1245.3,370.9 1245.7,396.8 1246.2,376.1 1246.7,351.0 1247.2,367.4 1247.7,383.9 1248.2,360.5 1248.7,343.2 1249.2,361.4 1249.6,340.6 1250.1,366.6 1250.6,351.0 1251.1,373.5 1251.6,350.2 1252.1,365.7 1252.6,345.8 1253.1,319.9 1253.6,307.8 1254.0,294.0 1254.5,312.1 1255.0,331.1 1255.5,310.4 1256.0,327.7 1256.5,346.7 1257.0,374.4 1257.5,357.9 1257.9,383.0 1258.4,403.8 1258.9,380.4 1259.4,357.9 1259.9,341.5 1260.4,325.9 1260.9,347.6 1261.4,326.8 1261.8,340.6 1262.3,358.8 1262.8,377.8 1263.3,354.5 1263.8,330.3 1264.3,318.2 1264.8,332.9 1265.3,356.2 1265.8,383.0 1266.2,367.4 1266.7,384.7 1267.2,367.4 1267.7,345.8 1268.2,372.6 1268.7,354.5 1269.2,370.0 1269.7,393.4 1270.1,417.6 1270.6,441.8 1271.1,463.4 1271.6,445.3 1272.1,462.5 1272.6,482.4 1273.1,504.9 1273.6,531.7 1274.0,510.1 1274.5,493.7 1275.0,472.9 1275.5,453.0 1276.0,476.4" fill="none" stroke="#adb5bd" stroke-width="0.7" opacity="0.6"/>
<polyline points="72.0,395.1 72.5,406.3 73.0,404.6 73.5,399.6 74.0,400.0 74.4,404.0 74.9,403.6 75.4,405.3 75.9,408.9 76.4,414.0 76.9,416.2 77.4,416.4 77.9,414.9 78.3,415.5 78.8,414.9 79.3,413.2 79.8,413.1 80.3,414.4 80.8,414.6 81.3,415.8 81.8,415.9 82.2,415.1 82.7,415.5 83.2,415.2 83.7,415.6 84.2,415.3 84.7,415.5 85.2,415.0 85.7,413.8 86.2,411.9 86.6,410.1 87.1,408.1 87.6,407.2 88.1,406.1 88.6,403.6 89.1,399.8 89.6,396.4 90.1,393.2 90.5,388.7 91.0,384.1 91.5,380.6 92.0,378.3 92.5,377.4 93.0,376.4 93.5,375.2 94.0,373.7 94.4,372.3 94.9,370.7 95.4,369.0 95.9,367.4 96.4,365.5 96.9,364.9 97.4,362.5 97.9,361.2 98.4,360.1 98.8,360.3 99.3,359.4 99.8,359.8 100.3,360.3 100.8,362.3 101.3,364.4 101.8,366.4 102.3,367.3 102.7,369.4 103.2,371.6 103.7,375.1 104.2,379.9 104.7,384.8 105.2,390.8 105.7,397.0 106.2,402.1 106.7,405.9 107.1,408.4 107.6,409.4 108.1,410.6 108.6,413.3 109.1,415.8 109.6,418.2 110.1,422.3 110.6,424.9 111.0,427.6 111.5,430.6 112.0,435.3 112.5,438.7 113.0,441.9 113.5,443.7 114.0,447.0 114.5,448.7 114.9,451.6 115.4,452.9 115.9,454.1 116.4,455.3 116.9,456.7 117.4,458.3 117.9,460.1 118.4,461.8 118.9,461.9 119.3,460.6 119.8,458.2 120.3,455.9 120.8,453.3 121.3,452.5 121.8,453.1 122.3,453.7 122.8,454.5 123.2,453.8 123.7,451.7 124.2,449.6 124.7,446.0 125.2,442.1 125.7,439.6 126.2,435.6 126.7,430.0 127.1,424.6 127.6,419.4 128.1,414.1 128.6,408.7 129.1,403.6 129.6,397.2 130.1,391.0 130.6,384.9 131.1,378.8 131.5,373.8 132.0,367.6 132.5,362.5 133.0,356.0 133.5,350.9 134.0,345.9 134.5,340.9 135.0,335.8 135.4,332.1 135.9,328.1 136.4,324.0 136.9,319.7 137.4,315.4 137.9,312.5 138.4,311.0 138.9,309.8 139.3,308.7 139.8,309.2 140.3,308.3 140.8,307.2 141.3,306.2 141.8,306.2 142.3,305.9 142.8,305.7 143.3,305.5 143.7,306.4 144.2,308.9 144.7,311.1 145.2,313.2 145.7,315.4 146.2,317.6 146.7,321.0 147.2,324.7 147.6,328.2 148.1,331.7 148.6,334.9 149.1,338.1 149.6,339.8 150.1,340.1 150.6,339.1 151.1,338.0 151.6,338.4 152.0,338.9 152.5,338.2 153.0,337.2 153.5,335.0 154.0,333.8 154.5,331.3 155.0,330.4 155.5,329.5 155.9,328.7 156.4,328.0 156.9,327.4 157.4,327.0 157.9,326.4 158.4,326.0 158.9,324.2 159.4,322.7 159.8,321.2 160.3,318.6 160.8,314.9 161.3,311.0 161.8,306.8 162.3,303.0 162.8,299.0 163.3,296.4 163.8,294.7 164.2,294.5 164.7,295.5 165.2,296.5 165.7,297.7 166.2,297.5 166.7,298.4 167.2,299.1 167.7,299.0 168.1,300.1 168.6,300.2 169.1,301.5 169.6,301.5 170.1,302.6 170.6,305.1 171.1,307.8 171.6,309.3 172.0,310.5 172.5,311.8 173.0,313.2 173.5,314.3 174.0,316.5 174.5,318.5 175.0,320.3 175.5,323.0 176.0,324.4 176.4,325.9 176.9,328.5 177.4,330.0 177.9,331.3 178.4,332.8 178.9,334.4 179.4,336.0 179.9,339.2 180.3,342.6 180.8,347.3 181.3,352.5 181.8,359.1 182.3,367.0 182.8,373.2 183.3,379.4 183.8,384.4 184.2,389.5 184.7,393.6 185.2,396.3 185.7,399.0 186.2,401.6 186.7,405.8 187.2,408.5 187.7,411.2 188.2,415.6 188.6,418.5 189.1,423.1 189.6,427.5 190.1,430.6 190.6,433.7 191.1,435.4 191.6,437.4 192.1,439.2 192.5,440.0 193.0,439.5 193.5,438.9 194.0,438.6 194.5,436.6 195.0,433.1 195.5,429.7 196.0,425.9 196.5,420.4 196.9,414.7 197.4,410.4 197.9,405.8 198.4,402.5 198.9,400.4 199.4,399.5 199.9,400.2 200.4,400.9 200.8,401.8 201.3,402.8 201.8,403.8 202.3,403.2 202.8,401.0 203.3,400.8 203.8,398.9 204.3,397.3 204.7,395.5 205.2,393.7 205.7,393.4 206.2,391.5 206.7,391.1 207.2,391.9 207.7,394.2 208.2,396.7 208.7,398.8 209.1,401.1 209.6,404.9 210.1,408.7 210.6,411.2 211.1,414.0 211.6,415.7 212.1,416.2 212.6,418.5 213.0,419.3 213.5,419.0 214.0,418.5 214.5,417.7 215.0,415.5 215.5,414.8 216.0,412.5 216.5,410.2 216.9,409.3 217.4,408.7 217.9,407.7 218.4,406.8 218.9,407.4 219.4,408.1 219.9,410.4 220.4,412.7 220.9,415.3 221.3,417.8 221.8,419.1 222.3,420.3 222.8,421.5 223.3,422.9 223.8,424.5 224.3,425.9 224.8,427.2 225.2,430.1 225.7,432.6 226.2,434.7 226.7,438.4 227.2,440.3 227.7,443.4 228.2,447.6 228.7,452.0 229.1,454.7 229.6,458.8 230.1,461.0 230.6,463.2 231.1,465.7 231.6,466.5 232.1,467.1 232.6,468.0 233.1,468.9 233.5,468.3 234.0,467.8 234.5,465.8 235.0,463.5 235.5,460.9 236.0,458.1 236.5,456.6 237.0,453.9 237.4,451.2 237.9,447.0 238.4,444.2 238.9,440.2 239.4,434.7 239.9,429.1 240.4,425.2 240.9,422.9 241.4,419.1 241.8,415.6 242.3,410.9 242.8,406.4 243.3,400.6 243.8,394.9 244.3,389.3 244.8,385.6 245.3,383.5 245.7,382.9 246.2,383.8 246.7,384.7 247.2,384.2 247.7,385.2 248.2,386.2 248.7,387.3 249.2,388.7 249.6,388.9 250.1,389.4 250.6,390.0 251.1,389.2 251.6,389.5 252.1,389.6 252.6,391.2 253.1,391.3 253.6,392.8 254.0,395.9 254.5,397.3 255.0,397.2 255.5,397.2 256.0,397.0 256.5,397.0 257.0,398.1 257.5,397.8 257.9,397.6 258.4,397.8 258.9,396.6 259.4,395.2 259.9,393.4 260.4,390.2 260.9,386.9 261.4,383.8 261.8,380.5 262.3,377.0 262.8,374.7 263.3,372.1 263.8,369.4 264.3,367.8 264.8,367.4 265.3,366.8 265.8,368.0 266.2,369.5 266.7,371.3 267.2,372.8 267.7,374.2 268.2,375.7 268.7,375.6 269.2,375.6 269.7,375.8 270.1,375.8 270.6,377.4 271.1,378.7 271.6,380.3 272.1,383.1 272.6,387.2 273.1,392.6 273.6,397.7 274.0,402.7 274.5,406.7 275.0,410.6 275.5,413.2 276.0,415.9 276.5,420.1 277.0,423.1 277.5,424.9 278.0,427.0 278.4,430.5 278.9,432.9 279.4,435.3 279.9,438.0 280.4,440.6 280.9,441.5 281.4,442.3 281.9,441.8 282.3,441.2 282.8,439.4 283.3,437.5 283.8,437.2 284.3,436.8 284.8,435.2 285.3,433.6 285.8,433.4 286.3,433.1 286.7,431.8 287.2,430.6 287.7,429.1 288.2,427.9 288.7,425.5 289.2,424.1 289.7,423.8 290.2,425.3 290.6,428.0 291.1,429.0 291.6,429.9 292.1,430.9 292.6,433.4 293.1,434.2 293.6,435.2 294.1,436.2 294.5,435.9 295.0,433.9 295.5,432.2 296.0,429.0 296.5,425.5 297.0,423.6 297.5,422.9 298.0,423.8 298.5,423.2 298.9,424.0 299.4,426.1 299.9,427.9 300.4,428.5 300.9,429.0 301.4,429.4 301.9,429.6 302.4,428.3 302.8,428.2 303.3,429.4 303.8,430.7 304.3,432.2 304.8,433.5 305.3,433.0 305.8,434.0 306.3,435.0 306.7,435.9 307.2,436.6 307.7,438.7 308.2,440.8 308.7,443.0 309.2,446.4 309.7,449.3 310.2,452.1 310.7,455.3 311.1,463.7 311.6,471.4 312.1,474.7 312.6,476.4 313.1,479.5 313.6,481.0 314.1,481.0 314.6,479.5 315.0,479.6 315.5,479.5 316.0,481.1 316.5,482.7 317.0,484.5 317.5,484.8 318.0,485.5 318.5,484.7 318.9,482.4 319.4,478.7 319.9,475.2 320.4,472.0 320.9,470.2 321.4,468.6 321.9,465.2 322.4,462.0 322.9,458.6 323.3,453.6 323.8,447.2 324.3,442.7 324.8,439.5 325.3,436.1 325.8,429.1 326.3,422.8 326.8,421.0 327.2,420.4 327.7,420.1 328.2,421.2 328.7,423.8 329.2,427.7 329.7,431.4 330.2,434.9 330.7,436.6 331.2,436.7 331.6,438.2 332.1,439.6 332.6,440.7 333.1,443.1 333.6,445.5 334.1,448.2 334.6,452.2 335.1,454.6 335.5,457.0 336.0,460.5 336.5,463.9 337.0,467.4 337.5,472.4 338.0,477.2 338.5,483.8 339.0,488.7 339.4,494.0 339.9,499.3 340.4,502.9 340.9,505.2 341.4,507.6 341.9,510.0 342.4,512.3 342.9,514.5 343.4,514.9 343.8,515.5 344.3,514.7 344.8,512.5 345.3,510.7 345.8,509.0 346.3,505.8 346.8,504.2 347.3,501.4 347.7,498.6 348.2,497.5 348.7,496.2 349.2,495.1 349.7,495.5 350.2,494.8 350.7,494.3 351.2,493.8 351.6,491.8 352.1,489.9 352.6,488.2 353.1,486.4 353.6,484.4 354.1,480.7 354.6,477.0 355.1,475.1 355.6,472.9 356.0,470.3 356.5,467.7 357.0,463.9 357.5,458.9 358.0,455.9 358.5,451.7 359.0,448.8 359.5,446.2 359.9,443.4 360.4,440.7 360.9,439.6 361.4,437.1 361.9,434.5 362.4,432.1 362.9,429.5 363.4,428.6 363.8,427.6 364.3,426.3 364.8,425.1 365.3,422.5 365.8,421.4 366.3,421.9 366.8,422.5 367.3,422.8 367.8,423.4 368.2,425.6 368.7,427.9 369.2,430.1 369.7,430.6 370.2,431.4 370.7,430.6 371.2,428.6 371.7,428.0 372.1,427.2 372.6,426.1 373.1,426.5 373.6,425.6 374.1,426.0 374.6,428.0 375.1,429.9 375.6,430.6 376.1,432.7 376.5,434.7 377.0,435.2 377.5,435.7 378.0,436.3 378.5,436.8 379.0,437.4 379.5,439.2 380.0,441.0 380.4,441.4 380.9,441.9 381.4,441.0 381.9,440.1 382.4,439.2 382.9,438.0 383.4,438.2 383.9,440.0 384.3,441.6 384.8,443.3 385.3,444.9 385.8,448.0 386.3,450.9 386.8,455.3 387.3,459.7 387.8,463.9 388.3,469.3 388.7,472.8 389.2,476.3 389.7,479.4 390.2,482.4 390.7,484.1 391.2,485.9 391.7,487.6 392.2,489.2 392.6,490.7 393.1,490.6 393.6,489.2 394.1,487.8 394.6,487.6 395.1,489.1 395.6,490.6 396.1,493.0 396.5,496.6 397.0,500.0 397.5,501.4 398.0,503.1 398.5,504.6 399.0,505.7 399.5,506.5 400.0,507.6 400.5,507.3 400.9,505.6 401.4,502.5 401.9,497.7 402.4,493.3 402.9,488.9 403.4,486.1 403.9,482.1 404.4,478.5 404.8,474.9 405.3,472.5 405.8,471.6 406.3,472.0 406.8,471.2 407.3,470.5 407.8,469.8 408.3,469.1 408.7,466.9 409.2,463.5 409.7,459.9 410.2,456.3 410.7,451.6 411.2,445.8 411.7,438.7 412.2,432.2 412.7,424.5 413.1,415.6 413.6,407.5 414.1,400.8 414.6,394.0 415.1,387.2 415.6,380.6 416.1,374.2 416.6,368.2 417.0,361.9 417.5,354.5 418.0,346.3 418.5,339.3 419.0,332.3 419.5,326.6 420.0,319.8 420.5,313.0 421.0,304.9 421.4,296.9 421.9,288.7 422.4,281.8 422.9,275.2 423.4,270.0 423.9,264.8 424.4,259.5 424.9,252.9 425.3,247.4 425.8,243.2 426.3,239.5 426.8,237.0 427.3,235.8 427.8,234.6 428.3,234.5 428.8,234.5 429.2,234.5 429.7,234.4 430.2,235.3 430.7,237.5 431.2,239.7 431.7,241.9 432.2,245.0 432.7,249.0 433.2,251.7 433.6,255.8 434.1,258.9 434.6,261.8 435.1,263.4 435.6,266.2 436.1,268.9 436.6,271.5 437.1,272.8 437.5,275.1 438.0,276.3 438.5,277.4 439.0,277.3 439.5,277.2 440.0,277.4 440.5,277.5 441.0,277.7 441.4,277.8 441.9,277.8 442.4,277.7 442.9,276.5 443.4,275.3 443.9,274.3 444.4,274.3 444.9,273.3 445.4,272.2 445.8,272.3 446.3,272.5 446.8,271.4 447.3,269.4 447.8,267.3 448.3,265.1 448.8,263.8 449.3,263.6 449.7,263.5 450.2,263.4 450.7,264.7 451.2,265.0 451.7,266.7 452.2,268.3 452.7,269.6 453.2,272.0 453.6,274.4 454.1,277.7 454.6,280.9 455.1,282.8 455.6,285.7 456.1,288.5 456.6,291.4 457.1,295.6 457.6,301.1 458.0,306.8 458.5,313.8 459.0,320.8 459.5,329.1 460.0,336.1 460.5,343.2 461.0,348.9 461.5,354.4 461.9,359.6 462.4,366.3 462.9,371.6 463.4,376.0 463.9,380.7 464.4,386.8 464.9,391.3 465.4,394.5 465.9,398.7 466.3,403.0 466.8,406.3 467.3,411.4 467.8,415.3 468.3,420.9 468.8,426.8 469.3,431.5 469.8,436.5 470.2,440.4 470.7,444.5 471.2,448.5 471.7,452.6 472.2,456.6 472.7,459.1 473.2,460.4 473.7,460.4 474.1,459.2 474.6,458.2 475.1,457.0 475.6,457.3 476.1,457.8 476.6,459.9 477.1,461.9 477.6,463.8 478.1,465.4 478.5,465.7 479.0,465.9 479.5,467.8 480.0,470.9 480.5,474.4 481.0,477.8 481.5,480.7 482.0,483.3 482.4,485.4 482.9,487.3 483.4,488.9 483.9,491.5 484.4,493.5 484.9,496.9 485.4,498.3 485.9,498.5 486.3,498.6 486.8,497.3 487.3,497.5 487.8,498.9 488.3,499.9 488.8,502.1 489.3,504.0 489.8,504.7 490.3,505.5 490.7,506.5 491.2,506.3 491.7,504.4 492.2,504.0 492.7,505.1 493.2,506.0 493.7,505.3 494.2,503.1 494.6,501.0 495.1,499.1 495.6,495.9 496.1,493.1 496.6,490.3 497.1,489.1 497.6,488.1 498.1,487.1 498.5,486.1 499.0,487.0 499.5,486.4 500.0,487.5 500.5,488.2 501.0,488.7 501.5,489.3 502.0,488.2 502.5,487.3 502.9,488.0 503.4,487.4 503.9,487.0 504.4,486.6 504.9,486.1 505.4,485.4 505.9,484.4 506.4,484.7 506.8,485.2 507.3,485.6 507.8,487.6 508.3,491.0 508.8,494.3 509.3,497.4 509.8,498.8 510.3,500.1 510.7,501.2 511.2,502.6 511.7,502.6 512.2,501.1 512.7,499.7 513.2,497.1 513.7,494.6 514.2,492.2 514.7,489.9 515.1,488.0 515.6,484.6 516.1,482.6 516.6,480.5 517.1,478.4 517.6,476.6 518.1,474.8 518.6,473.0 519.0,472.4 519.5,470.6 520.0,469.0 520.5,468.9 521.0,469.1 521.5,467.8 522.0,465.3 522.5,462.6 523.0,460.0 523.4,457.6 523.9,455.3 524.4,454.3 524.9,453.1 525.4,452.0 525.9,449.5 526.4,447.3 526.9,445.0 527.3,441.1 527.8,438.8 528.3,434.8 528.8,432.2 529.3,429.5 529.8,427.0 530.3,424.6 530.8,421.1 531.2,419.0 531.7,415.8 532.2,410.8 532.7,405.8 533.2,402.2 533.7,397.4 534.2,393.6 534.7,389.7 535.2,385.7 535.6,381.3 536.1,377.0 536.6,372.7 537.1,368.5 537.6,363.8 538.1,360.4 538.6,355.8 539.1,351.0 539.5,346.4 540.0,341.7 540.5,338.3 541.0,336.1 541.5,335.3 542.0,334.9 542.5,334.4 543.0,335.5 543.4,336.4 543.9,336.0 544.4,336.9 544.9,337.5 545.4,337.9 545.9,338.2 546.4,339.9 546.9,343.3 547.4,348.1 547.8,351.6 548.3,354.8 548.8,358.4 549.3,363.2 549.8,366.6 550.3,370.5 550.8,374.3 551.3,378.1 551.7,380.6 552.2,381.7 552.7,381.6 553.2,381.1 553.7,379.5 554.2,378.0 554.7,376.6 555.2,374.9 555.6,373.3 556.1,371.2 556.6,370.4 557.1,369.3 557.6,366.8 558.1,363.0 558.6,360.2 559.1,357.4 559.6,356.1 560.0,355.0 560.5,352.9 561.0,349.2 561.5,344.0 562.0,338.7 562.5,333.4 563.0,329.6 563.5,325.5 563.9,321.4 564.4,318.8 564.9,315.9 565.4,314.3 565.9,312.7 566.4,310.9 566.9,310.6 567.4,310.4 567.9,311.7 568.3,313.2 568.8,315.9 569.3,320.0 569.8,323.0 570.3,326.4 570.8,328.5 571.3,329.2 571.8,330.4 572.2,331.8 572.7,334.5 573.2,335.9 573.7,337.4 574.2,338.8 574.7,339.9 575.2,342.3 575.7,344.6 576.1,346.9 576.6,347.7 577.1,349.6 577.6,351.5 578.1,353.5 578.6,354.3 579.1,353.6 579.6,351.6 580.1,349.6 580.5,347.7 581.0,347.2 581.5,345.5 582.0,343.9 582.5,342.1 583.0,340.4 583.5,338.7 584.0,335.6 584.4,332.4 584.9,328.8 585.4,326.6 585.9,325.4 586.4,324.0 586.9,322.7 587.4,320.0 587.9,318.6 588.3,317.1 588.8,315.6 589.3,315.7 589.8,315.8 590.3,317.1 590.8,319.9 591.3,322.8 591.8,326.0 592.3,327.8 592.7,329.8 593.2,331.7 593.7,335.0 594.2,339.4 594.7,342.4 595.2,346.6 595.7,351.0 596.2,355.5 596.6,359.5 597.1,362.5 597.6,365.4 598.1,366.9 598.6,368.5 599.1,371.6 599.6,373.8 600.1,376.2 600.5,378.8 601.0,381.4 601.5,384.0 602.0,388.0 602.5,390.8 603.0,392.4 603.5,394.2 604.0,394.7 604.5,395.4 604.9,394.9 605.4,394.2 605.9,395.0 606.4,395.6 606.9,397.6 607.4,399.3 607.9,402.7 608.4,406.1 608.8,408.1 609.3,411.7 609.8,413.9 610.3,416.0 610.8,417.8 611.3,421.1 611.8,424.3 612.3,427.5 612.8,432.0 613.2,437.9 613.7,442.3 614.2,446.5 614.7,449.3 615.2,452.1 615.7,453.5 616.2,454.8 616.7,456.3 617.1,457.7 617.6,459.2 618.1,460.5 618.6,461.9 619.1,461.7 619.6,461.3 620.1,461.0 620.6,459.5 621.0,457.9 621.5,455.1 622.0,452.4 622.5,449.7 623.0,445.7 623.5,441.9 624.0,438.0 624.5,434.5 625.0,431.0 625.4,427.8 625.9,423.2 626.4,420.0 626.9,418.0 627.4,416.3 627.9,414.4 628.4,412.4 628.9,410.3 629.3,408.1 629.8,405.9 630.3,403.4 630.8,402.3 631.3,401.1 631.8,399.9 632.3,398.7 632.8,396.2 633.2,393.8 633.7,392.7 634.2,391.5 634.7,388.9 635.2,387.4 635.7,384.7 636.2,383.2 636.7,380.3 637.2,377.2 637.6,375.4 638.1,375.2 638.6,374.6 639.1,375.5 639.6,376.3 640.1,377.4 640.6,378.6 641.1,380.1 641.5,380.3 642.0,378.7 642.5,375.9 643.0,373.3 643.5,372.2 644.0,372.7 644.5,372.1 645.0,373.2 645.4,374.3 645.9,375.3 646.4,376.4 646.9,378.9 647.4,382.6 647.9,386.1 648.4,389.6 648.9,393.1 649.4,396.7 649.8,400.5 650.3,405.5 650.8,409.2 651.3,412.8 651.8,415.2 652.3,417.6 652.8,419.9 653.3,420.8 653.7,420.4 654.2,419.9 654.7,420.6 655.2,421.1 655.7,421.6 656.2,423.3 656.7,425.3 657.2,427.0 657.7,429.9 658.1,431.0 658.6,432.1 659.1,434.6 659.6,436.9 660.1,437.7 660.6,438.6 661.1,439.5 661.6,440.3 662.0,440.0 662.5,441.3 663.0,441.3 663.5,441.3 664.0,442.9 664.5,444.6 665.0,445.0 665.5,445.6 665.9,446.1 666.4,446.5 666.9,445.4 667.4,442.8 667.9,441.6 668.4,440.2 668.9,438.8 669.4,435.8 669.9,432.8 670.3,428.3 670.8,423.9 671.3,420.7 671.8,417.7 672.3,413.4 672.8,410.5 673.3,406.3 673.8,400.7 674.2,394.0 674.7,388.8 675.2,382.1 675.7,376.5 676.2,370.9 676.7,366.3 677.2,361.4 677.7,356.7 678.1,351.9 678.6,347.0 679.1,341.8 679.6,338.1 680.1,334.2 680.6,331.9 681.1,329.8 681.6,327.7 682.1,325.9 682.5,322.7 683.0,320.0 683.5,315.8 684.0,312.1 684.5,308.7 685.0,306.6 685.5,303.2 686.0,298.7 686.4,295.5 686.9,292.4 687.4,288.4 687.9,285.6 688.4,283.0 688.9,281.3 689.4,279.5 689.9,279.1 690.3,278.9 690.8,278.7 691.3,278.5 691.8,278.4 692.3,278.3 692.8,279.5 693.3,280.8 693.8,282.4 694.3,282.3 694.7,282.3 695.2,280.9 695.7,280.7 696.2,280.5 696.7,281.6 697.2,284.1 697.7,288.0 698.2,292.0 698.6,295.5 699.1,300.0 699.6,304.9 700.1,309.3 700.6,315.1 701.1,319.8 701.6,325.9 702.1,333.2 702.6,340.5 703.0,347.6 703.5,355.0 704.0,361.2 704.5,367.6 705.0,374.1 705.5,380.9 706.0,386.6 706.5,390.8 706.9,396.3 707.4,400.5 707.9,404.8 708.4,407.7 708.9,412.1 709.4,417.9 709.9,423.6 710.4,429.4 710.8,435.1 711.3,439.5 711.8,442.4 712.3,445.1 712.8,447.8 713.3,450.8 713.8,452.6 714.3,454.3 714.8,456.1 715.2,457.5 715.7,460.4 716.2,463.0 716.7,465.7 717.2,467.1 717.7,468.5 718.2,468.4 718.7,469.6 719.1,469.0 719.6,468.4 720.1,467.8 720.6,467.1 721.1,467.9 721.6,467.4 722.1,468.4 722.6,467.6 723.0,466.5 723.5,465.6 724.0,464.6 724.5,463.5 725.0,462.1 725.5,462.5 726.0,464.0 726.5,465.3 727.0,466.6 727.4,467.5 727.9,468.3 728.4,470.4 728.9,472.3 729.4,475.5 729.9,478.7 730.4,479.9 730.9,479.8 731.3,479.8 731.8,479.8 732.3,479.9 732.8,479.8 733.3,479.7 733.8,480.0 734.3,478.6 734.8,475.4 735.2,472.3 735.7,469.3 736.2,467.6 736.7,465.6 737.2,463.8 737.7,463.8 738.2,462.2 738.7,460.7 739.2,459.5 739.6,456.9 740.1,454.2 740.6,450.2 741.1,446.6 741.6,443.0 742.1,440.8 742.6,440.1 743.1,439.3 743.5,438.5 744.0,438.0 744.5,437.7 745.0,439.1 745.5,440.0 746.0,440.9 746.5,441.4 747.0,443.0 747.5,446.0 747.9,447.6 748.4,449.1 748.9,450.7 749.4,452.3 749.9,455.3 750.4,458.4 750.9,460.3 751.4,462.4 751.8,464.6 752.3,465.3 752.8,467.4 753.3,468.1 753.8,470.2 754.3,472.5 754.8,473.4 755.3,474.4 755.7,475.0 756.2,475.5 756.7,474.9 757.2,474.5 757.7,474.1 758.2,473.9 758.7,472.2 759.2,468.9 759.7,464.1 760.1,459.8 760.6,454.1 761.1,448.4 761.6,441.5 762.1,434.6 762.6,429.1 763.1,424.8 763.6,420.5 764.0,417.5 764.5,412.9 765.0,406.7 765.5,400.8 766.0,394.6 766.5,389.7 767.0,386.0 767.5,382.3 767.9,378.2 768.4,374.0 768.9,371.5 769.4,370.4 769.9,370.9 770.4,371.5 770.9,370.7 771.4,369.6 771.9,368.4 772.3,365.5 772.8,361.2 773.3,358.6 773.8,357.4 774.3,357.7 774.8,359.4 775.3,362.6 775.8,365.7 776.2,368.7 776.7,372.0 777.2,375.5 777.7,378.8 778.2,383.9 778.7,387.5 779.2,391.4 779.7,396.7 780.1,403.0 780.6,408.3 781.1,413.5 781.6,418.9 782.1,422.8 782.6,428.5 783.1,434.3 783.6,438.3 784.1,442.3 784.5,444.2 785.0,446.4 785.5,450.3 786.0,455.7 786.5,461.0 787.0,466.1 787.5,471.2 788.0,474.8 788.4,478.7 788.9,482.5 789.4,486.3 789.9,489.9 790.4,493.4 790.9,498.2 791.4,501.0 791.9,504.0 792.4,505.7 792.8,506.0 793.3,506.4 793.8,506.7 794.3,507.1 794.8,506.2 795.3,505.0 795.8,504.0 796.3,501.7 796.7,499.3 797.2,495.4 797.7,490.1 798.2,486.5 798.7,482.9 799.2,479.7 799.7,476.3 800.2,473.1 800.6,468.6 801.1,462.6 801.6,458.5 802.1,455.8 802.6,453.1 803.1,450.0 803.6,447.0 804.1,444.1 804.6,440.0 805.0,436.3 805.5,431.4 806.0,427.0 806.5,422.3 807.0,417.8 807.5,413.3 808.0,410.0 808.5,408.3 808.9,406.6 809.4,406.4 809.9,406.3 810.4,404.8 810.9,404.8 811.4,404.6 811.9,404.7 812.4,406.1 812.8,407.2 813.3,408.4 813.8,409.6 814.3,411.0 814.8,410.8 815.3,410.2 815.8,409.5 816.3,407.6 816.8,405.5 817.2,404.8 817.7,402.8 818.2,400.9 818.7,399.0 819.2,397.3 819.7,396.8 820.2,396.1 820.7,396.7 821.1,397.6 821.6,399.6 822.1,401.5 822.6,403.8 823.1,404.8 823.6,404.0 824.1,401.7 824.6,400.8 825.0,399.7 825.5,398.7 826.0,399.2 826.5,399.7 827.0,398.8 827.5,396.8 828.0,394.7 828.5,392.3 829.0,391.3 829.4,390.2 829.9,390.4 830.4,390.8 830.9,390.9 831.4,391.1 831.9,391.1 832.4,392.8 832.9,392.9 833.3,392.7 833.8,392.5 834.3,392.7 834.8,394.2 835.3,394.5 835.8,394.6 836.3,393.3 836.8,392.1 837.3,389.2 837.7,387.6 838.2,387.6 838.7,388.7 839.2,388.7 839.7,390.2 840.2,391.6 840.7,391.3 841.2,392.5 841.6,395.1 842.1,399.0 842.6,402.9 843.1,407.0 843.6,410.9 844.1,416.3 844.6,421.5 845.1,428.0 845.5,434.2 846.0,440.3 846.5,446.5 847.0,450.8 847.5,456.5 848.0,460.6 848.5,466.0 849.0,469.5 849.5,471.7 849.9,475.1 850.4,478.5 850.9,481.9 851.4,486.5 851.9,492.6 852.4,498.6 852.9,502.9 853.4,505.8 853.8,508.4 854.3,509.3 854.8,508.8 855.3,508.4 855.8,507.8 856.3,507.0 856.8,504.9 857.3,503.0 857.7,502.6 858.2,500.8 858.7,499.1 859.2,497.5 859.7,496.2 860.2,496.7 860.7,495.6 861.2,494.5 861.7,493.8 862.1,491.7 862.6,489.7 863.1,488.0 863.6,487.9 864.1,487.5 864.6,485.9 865.1,483.3 865.6,480.7 866.0,478.2 866.5,475.7 867.0,472.1 867.5,470.3 868.0,468.4 868.5,466.8 869.0,465.2 869.5,463.8 869.9,463.9 870.4,464.0 870.9,464.1 871.4,464.1 871.9,462.6 872.4,459.6 872.9,457.9 873.4,454.8 873.9,450.2 874.3,445.6 874.8,439.5 875.3,434.8 875.8,429.0 876.3,423.0 876.8,417.4 877.3,413.2 877.8,408.9 878.2,404.8 878.7,401.0 879.2,397.0 879.7,394.4 880.2,391.6 880.7,388.6 881.2,385.7 881.7,384.4 882.1,381.5 882.6,378.9 883.1,376.1 883.6,375.1 884.1,375.4 884.6,375.5 885.1,375.9 885.6,376.5 886.1,378.5 886.5,381.7 887.0,386.3 887.5,391.0 888.0,395.3 888.5,399.9 889.0,403.0 889.5,407.4 890.0,411.9 890.4,417.9 890.9,423.8 891.4,430.6 891.9,437.6 892.4,442.8 892.9,447.8 893.4,452.7 893.9,457.2 894.4,461.9 894.8,466.6 895.3,471.7 895.8,476.5 896.3,479.7 896.8,484.6 897.3,489.3 897.8,494.1 898.3,498.8 898.7,502.1 899.2,503.9 899.7,505.7 900.2,506.1 900.7,506.5 901.2,505.6 901.7,503.3 902.2,499.3 902.6,497.3 903.1,496.5 903.6,495.9 904.1,494.1 904.6,492.4 905.1,488.9 905.6,487.1 906.1,483.8 906.6,479.1 907.0,475.9 907.5,471.5 908.0,468.4 908.5,466.7 909.0,463.6 909.5,462.1 910.0,460.2 910.5,457.0 910.9,453.7 911.4,449.0 911.9,445.9 912.4,442.9 912.9,438.2 913.4,435.1 913.9,432.1 914.4,428.9 914.8,427.0 915.3,425.1 915.8,424.5 916.3,423.9 916.8,424.7 917.3,424.0 917.8,423.4 918.3,424.0 918.8,424.7 919.2,425.4 919.7,427.6 920.2,429.8 920.7,433.4 921.2,436.9 921.7,440.6 922.2,444.0 922.7,446.2 923.1,447.0 923.6,447.5 924.1,446.6 924.6,444.2 925.1,443.2 925.6,443.6 926.1,443.8 926.6,442.4 927.0,441.0 927.5,439.8 928.0,438.9 928.5,439.3 929.0,439.8 929.5,440.5 930.0,439.8 930.5,437.8 931.0,435.7 931.4,433.9 931.9,433.3 932.4,431.3 932.9,429.6 933.4,429.5 933.9,428.2 934.4,425.6 934.9,421.8 935.3,416.8 935.8,412.2 936.3,407.6 936.8,404.6 937.3,401.5 937.8,399.9 938.3,399.7 938.8,399.7 939.3,401.0 939.7,402.6 940.2,403.0 940.7,405.0 941.2,407.1 941.7,409.3 942.2,412.8 942.7,416.0 943.2,419.3 943.6,420.7 944.1,422.2 944.6,424.8 945.1,427.5 945.6,430.1 946.1,432.5 946.6,435.0 947.1,437.3 947.5,438.3 948.0,437.5 948.5,436.3 949.0,436.7 949.5,438.1 950.0,440.8 950.5,444.8 951.0,448.7 951.5,451.0 951.9,454.7 952.4,457.1 952.9,459.5 953.4,461.7 953.9,462.7 954.4,462.3 954.9,461.7 955.4,459.8 955.8,459.0 956.3,458.4 956.8,457.7 957.3,455.6 957.8,452.1 958.3,448.8 958.8,444.2 959.3,439.7 959.7,437.0 960.2,435.9 960.7,434.8 961.2,432.4 961.7,430.1 962.2,427.5 962.7,425.2 963.2,424.2 963.7,423.3 964.1,422.3 964.6,419.9 965.1,416.2 965.6,412.5 966.1,410.4 966.6,408.3 967.1,407.6 967.6,405.3 968.0,403.3 968.5,402.8 969.0,402.2 969.5,402.7 970.0,404.5 970.5,405.0 971.0,405.1 971.5,404.9 971.9,404.8 972.4,406.1 972.9,408.9 973.4,412.8 973.9,415.1 974.4,417.4 974.9,419.7 975.4,422.2 975.9,424.9 976.3,429.0 976.8,433.3 977.3,437.6 977.8,440.7 978.3,443.4 978.8,444.9 979.3,447.8 979.8,450.7 980.2,452.3 980.7,453.7 981.2,455.4 981.7,455.8 982.2,456.2 982.7,456.4 983.2,455.0 983.7,453.5 984.2,450.7 984.6,448.2 985.1,447.0 985.6,445.9 986.1,443.4 986.6,442.3 987.1,439.8 987.6,437.4 988.1,435.2 988.5,432.9 989.0,429.1 989.5,425.0 990.0,419.5 990.5,413.9 991.0,408.0 991.5,403.7 992.0,399.1 992.4,394.5 992.9,389.9 993.4,386.6 993.9,383.4 994.4,380.2 994.9,378.0 995.4,374.4 995.9,370.4 996.4,366.1 996.8,363.3 997.3,362.0 997.8,362.3 998.3,363.0 998.8,363.4 999.3,363.6 999.8,364.0 1000.3,365.8 1000.7,369.2 1001.2,372.6 1001.7,375.7 1002.2,377.1 1002.7,377.0 1003.2,376.8 1003.7,376.9 1004.2,375.6 1004.6,374.3 1005.1,373.1 1005.6,372.0 1006.1,370.5 1006.6,370.4 1007.1,371.9 1007.6,373.3 1008.1,373.2 1008.6,371.5 1009.0,371.3 1009.5,371.3 1010.0,371.6 1010.5,370.6 1011.0,369.8 1011.5,368.9 1012.0,366.6 1012.5,362.8 1012.9,360.1 1013.4,357.5 1013.9,354.9 1014.4,352.2 1014.9,349.3 1015.4,344.9 1015.9,340.4 1016.4,337.4 1016.8,334.6 1017.3,333.1 1017.8,331.7 1018.3,331.3 1018.8,331.1 1019.3,330.9 1019.8,330.5 1020.3,330.0 1020.8,328.5 1021.2,327.0 1021.7,325.4 1022.2,324.0 1022.7,322.7 1023.2,321.6 1023.7,320.2 1024.2,318.5 1024.7,316.9 1025.1,316.5 1025.6,317.4 1026.1,318.6 1026.6,321.5 1027.1,324.4 1027.6,326.3 1028.1,328.0 1028.6,328.5 1029.1,328.8 1029.5,327.7 1030.0,328.0 1030.5,328.4 1031.0,328.6 1031.5,330.2 1032.0,331.9 1032.5,333.5 1033.0,335.5 1033.4,337.5 1033.9,341.0 1034.4,345.8 1034.9,350.8 1035.4,356.9 1035.9,361.5 1036.4,364.9 1036.9,368.4 1037.3,371.9 1037.8,377.0 1038.3,380.7 1038.8,384.9 1039.3,389.0 1039.8,391.9 1040.3,395.1 1040.8,398.1 1041.3,401.2 1041.7,404.0 1042.2,408.0 1042.7,411.8 1043.2,416.9 1043.7,420.6 1044.2,424.5 1044.7,427.0 1045.2,428.5 1045.6,430.0 1046.1,430.4 1046.6,430.6 1047.1,430.8 1047.6,431.1 1048.1,431.4 1048.6,429.9 1049.1,427.4 1049.5,424.9 1050.0,421.2 1050.5,417.5 1051.0,415.1 1051.5,412.3 1052.0,409.6 1052.5,405.6 1053.0,401.6 1053.5,396.2 1053.9,392.2 1054.4,389.1 1054.9,386.0 1055.4,381.5 1055.9,375.5 1056.4,369.7 1056.9,363.7 1057.4,358.1 1057.8,352.4 1058.3,347.0 1058.8,341.8 1059.3,338.1 1059.8,335.5 1060.3,332.7 1060.8,331.1 1061.3,329.7 1061.7,329.7 1062.2,329.3 1062.7,330.4 1063.2,332.9 1063.7,335.4 1064.2,337.9 1064.7,341.5 1065.2,346.6 1065.7,351.9 1066.1,356.0 1066.6,361.5 1067.1,368.0 1067.6,375.8 1068.1,383.4 1068.6,389.5 1069.1,394.6 1069.6,398.1 1070.0,401.5 1070.5,405.1 1071.0,410.0 1071.5,415.3 1072.0,422.2 1072.5,427.6 1073.0,433.1 1073.5,440.0 1074.0,445.6 1074.4,451.1 1074.9,456.8 1075.4,461.4 1075.9,465.9 1076.4,470.6 1076.9,474.0 1077.4,475.7 1077.9,477.4 1078.3,480.6 1078.8,482.4 1079.3,482.8 1079.8,483.1 1080.3,481.8 1080.8,482.2 1081.3,482.5 1081.8,481.6 1082.2,479.5 1082.7,479.0 1083.2,479.9 1083.7,482.0 1084.2,485.7 1084.7,488.9 1085.2,493.2 1085.7,497.2 1086.2,500.8 1086.6,502.5 1087.1,504.0 1087.6,505.0 1088.1,504.5 1088.6,503.8 1089.1,503.2 1089.6,501.0 1090.1,500.3 1090.5,499.6 1091.0,497.5 1091.5,495.7 1092.0,495.2 1092.5,494.7 1093.0,493.9 1093.5,492.9 1094.0,493.3 1094.4,492.3 1094.9,491.4 1095.4,490.4 1095.9,489.3 1096.4,489.9 1096.9,490.3 1097.4,489.1 1097.9,488.2 1098.4,487.4 1098.8,485.3 1099.3,485.0 1099.8,483.4 1100.3,482.1 1100.8,479.6 1101.3,477.4 1101.8,475.3 1102.3,475.1 1102.7,476.2 1103.2,478.9 1103.7,481.3 1104.2,484.0 1104.7,484.8 1105.2,484.1 1105.7,483.4 1106.2,484.1 1106.6,485.2 1107.1,485.0 1107.6,484.9 1108.1,486.6 1108.6,488.4 1109.1,491.5 1109.6,495.6 1110.1,499.2 1110.6,501.1 1111.0,501.2 1111.5,502.7 1112.0,505.5 1112.5,507.9 1113.0,510.0 1113.5,513.0 1114.0,514.2 1114.5,516.5 1114.9,518.4 1115.4,519.9 1115.9,521.1 1116.4,522.3 1116.9,521.8 1117.4,521.3 1117.9,519.3 1118.4,516.0 1118.9,512.5 1119.3,510.8 1119.8,510.5 1120.3,510.3 1120.8,508.6 1121.3,506.4 1121.8,505.7 1122.3,503.4 1122.8,500.8 1123.2,496.8 1123.7,491.6 1124.2,486.9 1124.7,482.4 1125.2,479.6 1125.7,477.1 1126.2,473.2 1126.7,469.5 1127.1,464.8 1127.6,460.4 1128.1,455.2 1128.6,451.9 1129.1,447.4 1129.6,442.0 1130.1,438.5 1130.6,435.5 1131.1,433.8 1131.5,432.3 1132.0,431.1 1132.5,431.5 1133.0,433.4 1133.5,435.3 1134.0,436.0 1134.5,436.6 1135.0,438.7 1135.4,441.1 1135.9,443.7 1136.4,444.8 1136.9,445.9 1137.4,447.0 1137.9,448.0 1138.4,449.1 1138.9,448.6 1139.3,447.0 1139.8,444.0 1140.3,440.9 1140.8,437.8 1141.3,433.4 1141.8,430.2 1142.3,426.9 1142.8,424.8 1143.3,422.8 1143.7,422.4 1144.2,423.4 1144.7,422.8 1145.2,422.3 1145.7,422.1 1146.2,423.2 1146.7,422.8 1147.2,422.1 1147.6,420.1 1148.1,418.2 1148.6,417.6 1149.1,417.0 1149.6,414.8 1150.1,412.2 1150.6,409.6 1151.1,408.7 1151.5,408.0 1152.0,406.0 1152.5,404.0 1153.0,403.5 1153.5,404.6 1154.0,405.4 1154.5,406.3 1155.0,407.4 1155.5,408.3 1155.9,409.1 1156.4,408.7 1156.9,408.4 1157.4,406.6 1157.9,403.5 1158.4,398.9 1158.9,393.9 1159.4,388.9 1159.8,383.8 1160.3,378.4 1160.8,373.0 1161.3,368.7 1161.8,364.3 1162.3,361.1 1162.8,357.9 1163.3,354.5 1163.8,350.8 1164.2,347.0 1164.7,344.9 1165.2,342.6 1165.7,340.0 1166.2,337.4 1166.7,336.1 1167.2,334.9 1167.7,333.8 1168.1,332.7 1168.6,331.7 1169.1,330.3 1169.6,328.8 1170.1,327.4 1170.6,327.2 1171.1,326.9 1171.6,325.4 1172.0,324.0 1172.5,322.8 1173.0,321.6 1173.5,319.4 1174.0,318.3 1174.5,317.2 1175.0,315.1 1175.5,313.1 1176.0,311.2 1176.4,308.2 1176.9,305.2 1177.4,303.3 1177.9,301.7 1178.4,300.2 1178.9,300.1 1179.4,298.6 1179.9,297.2 1180.3,294.6 1180.8,293.2 1181.3,291.8 1181.8,290.5 1182.3,288.0 1182.8,284.1 1183.3,280.6 1183.8,277.3 1184.2,274.2 1184.7,271.3 1185.2,267.5 1185.7,264.8 1186.2,262.1 1186.7,259.4 1187.2,257.4 1187.7,255.4 1188.2,253.4 1188.6,250.5 1189.1,248.9 1189.6,247.0 1190.1,243.8 1190.6,239.5 1191.1,236.3 1191.6,233.4 1192.1,230.3 1192.5,227.1 1193.0,224.0 1193.5,219.6 1194.0,216.5 1194.5,212.2 1195.0,207.9 1195.5,203.7 1196.0,199.7 1196.4,195.4 1196.9,192.2 1197.4,188.9 1197.9,185.7 1198.4,182.6 1198.9,180.5 1199.4,178.4 1199.9,176.2 1200.4,174.0 1200.8,173.1 1201.3,173.5 1201.8,174.1 1202.3,176.2 1202.8,178.2 1203.3,181.4 1203.8,183.5 1204.3,186.9 1204.7,191.8 1205.2,196.4 1205.7,200.9 1206.2,205.4 1206.7,210.0 1207.2,214.9 1207.7,218.5 1208.2,223.1 1208.7,226.5 1209.1,229.8 1209.6,234.4 1210.1,238.8 1210.6,242.9 1211.1,248.2 1211.6,253.7 1212.1,260.2 1212.6,266.6 1213.0,272.8 1213.5,277.7 1214.0,282.4 1214.5,288.4 1215.0,293.2 1215.5,296.7 1216.0,298.9 1216.5,300.1 1216.9,301.0 1217.4,303.0 1217.9,305.0 1218.4,308.3 1218.9,311.5 1219.4,314.9 1219.9,318.2 1220.4,320.2 1220.9,322.1 1221.3,322.7 1221.8,323.2 1222.3,324.9 1222.8,325.4 1223.3,325.9 1223.8,326.6 1224.3,325.9 1224.8,325.2 1225.2,324.6 1225.7,324.0 1226.2,323.1 1226.7,322.7 1227.2,322.3 1227.7,321.8 1228.2,323.1 1228.7,325.8 1229.1,328.5 1229.6,331.3 1230.1,334.0 1230.6,336.4 1231.1,338.8 1231.6,340.1 1232.1,340.3 1232.6,339.3 1233.1,336.9 1233.5,333.4 1234.0,328.7 1234.5,324.4 1235.0,320.2 1235.5,316.1 1236.0,312.1 1236.5,306.8 1237.0,300.4 1237.4,294.0 1237.9,288.9 1238.4,285.2 1238.9,281.5 1239.4,276.8 1239.9,272.4 1240.4,268.2 1240.9,263.8 1241.3,259.2 1241.8,255.5 1242.3,253.0 1242.8,250.3 1243.3,247.3 1243.8,244.2 1244.3,242.1 1244.8,241.3 1245.3,242.1 1245.7,244.5 1246.2,246.7 1246.7,248.6 1247.2,251.7 1247.7,255.8 1248.2,259.7 1248.7,263.5 1249.2,268.2 1249.6,272.9 1250.1,277.8 1250.6,282.8 1251.1,289.0 1251.6,295.1 1252.1,302.3 1252.6,308.3 1253.1,312.6 1253.6,317.1 1254.0,321.6 1254.5,325.9 1255.0,330.2 1255.5,333.2 1256.0,336.2 1256.5,339.5 1257.0,343.2 1257.5,345.7 1257.9,348.6 1258.4,351.6 1258.9,353.3 1259.4,353.7 1259.9,352.7 1260.4,350.4 1260.9,349.4 1261.4,348.6 1261.8,347.7 1262.3,346.9 1262.8,347.5 1263.3,347.8 1263.8,346.8 1264.3,346.1 1264.8,344.9 1265.3,345.1 1265.8,345.4 1266.2,346.0 1266.7,346.6 1267.2,347.4 1267.7,348.2 1268.2,350.4 1268.7,352.4 1269.2,354.3 1269.7,356.4 1270.1,360.0 1270.6,363.8 1271.1,367.7 1271.6,370.0 1272.1,373.5 1272.6,376.8 1273.1,380.2 1273.6,385.3 1274.0,390.3 1274.5,395.4 1275.0,400.3 1275.5,403.8 1276.0,408.8" fill="none" stroke="#1c7ed6" stroke-width="2.5"/>
<line x1="72.0" y1="415.1" x2="1276.0" y2="387.5" stroke="#2f9e44" stroke-width="2" stroke-dasharray="7,5"/>
<rect x="72" y="64" width="1204" height="536" fill="none" stroke="#adb5bd"/>
<text x="72" y="28" font-size="18" font-weight="bold" fill="#212529">WolfeyBot ladder ELO over 2468 battles (by version)</text>
<text x="72" y="46" font-size="12" fill="#868e96">elo_before each battle — faint = raw, blue = 30-battle rolling avg, orange = per-version mean</text>
<text x="674" y="642" text-anchor="middle" fill="#868e96">battle # (chronological) &#8594;</text>
<line x1="1046" y1="80" x2="1070" y2="80" stroke="#1c7ed6" stroke-width="2.5"/>
<text x="1076" y="84" fill="#495057">30-battle rolling avg</text>
<line x1="1046" y1="98" x2="1070" y2="98" stroke="#d9480f" stroke-width="2.5"/>
<text x="1076" y="102" fill="#495057">per-version mean</text>
<line x1="1046" y1="116" x2="1070" y2="116" stroke="#2f9e44" stroke-width="2" stroke-dasharray="7,5"/>
<text x="1076" y="120" fill="#495057">overall trend</text>
</svg>